<svg id="svg" version="1.1" xmlns="http://www.w3.org/2000/svg" xmlns:xlink="http://www.w3.org/1999/xlink" width="400" height="533.3333333333334" viewBox="0, 0, 400,533.3333333333334"><g id="svgg"><path id="path0" d="M280.889 108.813 C 280.889 109.144,283.129 116.360,283.568 117.444 C 283.667 117.689,283.870 118.289,284.019 118.778 C 284.168 119.267,284.423 120.067,284.584 120.556 C 284.746 121.044,285.175 122.462,285.537 123.706 C 286.106 125.661,286.447 127.043,287.557 131.889 C 288.113 134.319,288.484 136.206,288.667 137.534 C 288.778 138.340,289.022 139.950,289.207 141.111 C 289.676 144.039,289.946 145.832,290.210 147.778 C 290.335 148.694,290.538 150.144,290.662 151.000 C 290.787 151.856,290.930 152.906,290.981 153.333 C 291.326 156.227,291.615 157.867,292.018 159.223 C 292.272 160.078,292.537 160.978,292.606 161.222 C 292.674 161.467,292.803 161.767,292.892 161.889 C 292.981 162.011,293.176 162.511,293.325 163.000 C 293.475 163.489,293.874 164.689,294.213 165.667 C 294.551 166.644,294.960 167.894,295.121 168.444 C 295.282 168.994,295.481 169.544,295.563 169.667 C 295.645 169.789,296.741 173.039,297.998 176.889 C 299.255 180.739,300.458 184.389,300.671 185.000 C 300.885 185.611,301.184 186.561,301.337 187.111 C 301.490 187.661,301.798 188.661,302.021 189.333 C 302.245 190.006,302.578 191.106,302.763 191.778 C 302.948 192.450,303.308 193.700,303.563 194.556 C 303.818 195.411,304.224 196.811,304.466 197.667 C 305.200 200.268,305.586 201.650,305.678 202.000 C 305.995 203.214,307.448 208.333,307.744 209.282 C 307.869 209.681,307.981 210.055,307.992 210.113 C 308.003 210.170,308.051 210.344,308.098 210.498 C 308.165 210.718,308.913 213.599,309.208 214.778 C 309.802 217.144,310.458 219.093,310.715 219.252 C 310.983 219.417,313.913 216.547,314.829 215.222 C 315.167 214.733,315.496 214.283,315.560 214.222 C 315.879 213.919,317.156 211.797,317.633 210.778 C 318.351 209.242,319.161 207.184,319.250 206.667 C 319.302 206.361,319.434 205.861,319.542 205.556 C 320.198 203.706,320.497 196.291,319.993 194.379 C 319.797 193.637,319.596 192.622,319.399 191.387 C 319.336 190.988,319.195 190.608,319.087 190.540 C 318.978 190.473,318.889 190.180,318.889 189.889 C 318.889 189.598,318.800 189.305,318.691 189.237 C 318.583 189.170,318.425 188.839,318.341 188.502 C 318.257 188.165,318.057 187.589,317.898 187.222 C 317.738 186.856,317.484 186.206,317.333 185.778 C 317.182 185.350,316.870 184.576,316.640 184.058 C 316.410 183.540,316.222 182.982,316.222 182.817 C 316.222 182.653,316.154 182.451,316.072 182.368 C 315.989 182.285,315.696 181.593,315.420 180.831 C 314.434 178.104,313.630 175.973,313.011 174.444 C 312.837 174.017,312.379 172.817,311.992 171.778 C 311.605 170.739,311.205 169.689,311.104 169.444 C 311.003 169.200,310.652 168.305,310.324 167.455 C 309.996 166.605,309.596 165.605,309.436 165.233 C 309.275 164.860,308.879 163.856,308.556 163.000 C 308.233 162.144,307.617 160.594,307.189 159.556 C 306.760 158.517,306.249 157.267,306.054 156.778 C 305.859 156.289,305.506 155.439,305.271 154.889 C 305.035 154.339,304.714 153.589,304.558 153.222 C 304.257 152.515,303.610 151.057,302.907 149.500 C 302.672 148.981,302.197 147.920,301.851 147.143 C 301.107 145.471,295.791 134.837,294.504 132.444 C 294.011 131.528,292.865 129.428,291.957 127.778 C 291.049 126.128,290.153 124.478,289.967 124.111 C 289.780 123.744,289.375 122.994,289.067 122.444 C 288.759 121.894,288.257 120.994,287.951 120.444 C 287.646 119.894,287.168 119.044,286.890 118.556 C 286.612 118.067,286.086 117.117,285.722 116.444 C 285.358 115.772,284.797 114.772,284.475 114.222 C 283.706 112.910,283.073 111.776,282.086 109.944 C 281.291 108.468,280.889 108.088,280.889 108.813 M197.111 108.910 C 197.111 109.135,197.919 110.413,198.222 110.667 C 198.352 110.775,199.851 112.984,203.426 118.333 C 204.406 119.800,205.286 121.033,205.382 121.074 C 205.477 121.115,205.556 121.290,205.556 121.463 C 205.556 121.636,205.656 121.778,205.778 121.778 C 205.900 121.778,206.000 121.905,206.000 122.060 C 206.000 122.216,206.281 122.691,206.625 123.116 C 207.223 123.856,216.055 137.104,219.510 142.444 C 220.419 143.850,221.352 145.271,221.582 145.602 C 221.812 145.933,222.000 146.300,222.000 146.417 C 222.000 146.534,222.077 146.663,222.170 146.704 C 222.264 146.744,222.784 147.528,223.327 148.444 C 223.869 149.361,224.793 150.832,225.379 151.712 C 225.965 152.593,226.444 153.369,226.444 153.437 C 226.444 153.505,226.879 154.235,227.411 155.058 C 227.942 155.882,229.017 157.610,229.799 158.898 C 230.582 160.187,231.346 161.437,231.498 161.676 C 231.649 161.915,231.988 162.511,232.250 163.000 C 232.512 163.489,232.795 163.939,232.879 164.000 C 232.964 164.061,233.098 164.261,233.178 164.444 C 233.258 164.628,233.551 165.143,233.829 165.589 C 235.032 167.526,238.043 172.509,238.472 173.274 C 238.730 173.735,239.129 174.377,239.359 174.701 C 239.589 175.025,239.778 175.339,239.778 175.399 C 239.778 175.577,243.619 181.872,243.875 182.111 C 244.005 182.233,244.610 182.733,245.220 183.222 C 245.829 183.711,246.486 184.261,246.680 184.444 C 246.873 184.628,247.416 185.078,247.886 185.444 C 248.356 185.811,249.061 186.361,249.452 186.667 C 250.633 187.588,253.249 189.726,253.579 190.040 C 253.750 190.201,254.939 191.181,256.222 192.217 C 257.506 193.253,258.667 194.203,258.802 194.328 C 258.938 194.453,259.432 194.856,259.899 195.222 C 260.367 195.589,260.906 196.043,261.097 196.231 C 261.288 196.419,261.794 196.835,262.222 197.156 C 262.650 197.477,263.312 198.023,263.694 198.370 C 264.076 198.716,264.626 199.191,264.917 199.424 C 265.847 200.172,269.851 203.604,271.016 204.652 C 272.586 206.066,273.370 206.762,275.667 208.784 C 276.767 209.752,277.777 210.647,277.911 210.772 C 278.046 210.898,279.191 211.950,280.456 213.111 C 281.721 214.272,283.511 215.928,284.434 216.790 C 285.356 217.652,286.711 218.902,287.444 219.568 C 288.177 220.233,289.010 221.017,289.295 221.309 C 290.281 222.318,292.086 223.778,292.347 223.778 C 292.598 223.778,292.755 222.992,293.056 220.222 C 293.253 218.411,293.238 203.436,293.038 201.889 C 292.943 201.156,292.764 199.756,292.640 198.778 C 292.249 195.701,292.074 194.566,291.936 194.222 C 291.863 194.039,291.760 193.539,291.707 193.111 C 291.212 189.068,288.819 182.894,286.241 179.005 C 284.664 176.626,284.439 176.413,275.000 168.343 C 270.478 164.477,266.528 161.091,266.222 160.819 C 265.917 160.547,265.117 159.878,264.444 159.332 C 263.772 158.786,263.172 158.283,263.111 158.213 C 262.930 158.007,256.260 152.382,255.488 151.784 C 255.097 151.481,254.228 150.772,253.556 150.208 C 252.883 149.644,252.093 148.992,251.798 148.758 C 251.504 148.524,250.904 148.028,250.465 147.654 C 249.491 146.824,244.722 143.022,243.210 141.869 C 242.606 141.408,241.990 140.924,241.841 140.793 C 241.269 140.290,240.850 139.969,236.655 136.825 C 228.840 130.968,229.951 131.791,226.097 129.000 C 224.916 128.144,223.818 127.319,223.657 127.167 C 223.497 127.014,223.309 126.889,223.240 126.889 C 223.171 126.889,222.684 126.564,222.157 126.167 C 221.631 125.769,220.917 125.244,220.572 125.000 C 219.387 124.161,217.667 122.910,217.444 122.726 C 217.322 122.625,216.722 122.195,216.111 121.771 C 215.500 121.347,214.950 120.950,214.889 120.889 C 214.828 120.828,214.428 120.531,214.000 120.229 C 213.572 119.927,211.470 118.427,209.328 116.896 C 207.187 115.364,205.037 113.832,204.551 113.490 C 204.064 113.148,202.917 112.328,202.000 111.667 C 197.761 108.611,197.111 108.245,197.111 108.910 M327.315 191.373 C 327.305 191.535,327.249 191.967,327.190 192.333 C 327.131 192.700,327.064 198.650,327.041 205.556 C 327.017 212.461,326.923 218.227,326.832 218.369 C 326.740 218.511,326.609 219.611,326.539 220.813 C 326.470 222.016,326.373 223.127,326.324 223.281 C 326.274 223.436,326.171 224.336,326.094 225.281 C 326.018 226.227,325.883 227.350,325.794 227.778 C 325.705 228.206,325.609 229.150,325.581 229.876 C 325.552 230.602,325.484 231.269,325.430 231.357 C 325.375 231.446,325.275 232.102,325.209 232.815 C 325.142 233.528,324.993 234.779,324.878 235.594 C 324.626 237.373,324.703 237.613,325.855 238.645 C 326.346 239.085,326.970 239.644,327.240 239.889 C 334.297 246.265,337.956 245.131,337.478 236.717 C 337.406 235.457,337.302 234.351,337.245 234.260 C 337.189 234.168,337.120 233.298,337.091 232.326 C 337.063 231.354,336.965 230.208,336.874 229.779 C 336.783 229.351,336.654 228.300,336.587 227.444 C 336.519 226.589,336.408 225.489,336.340 225.000 C 336.132 223.517,335.771 220.825,335.669 220.000 C 335.617 219.572,335.476 218.895,335.357 218.496 C 335.237 218.096,335.141 217.720,335.142 217.659 C 335.150 217.317,334.123 213.043,333.114 209.222 C 332.727 207.756,332.327 206.206,332.227 205.778 C 331.992 204.779,330.933 201.169,330.663 200.444 C 330.549 200.139,330.413 199.639,330.360 199.333 C 330.307 199.028,330.096 198.291,329.892 197.695 C 329.687 197.100,329.488 196.450,329.449 196.251 C 329.409 196.052,329.232 195.489,329.053 195.000 C 328.875 194.511,328.547 193.561,328.323 192.889 C 327.905 191.628,327.351 190.796,327.315 191.373 M250.667 215.698 C 249.332 215.856,246.695 216.316,245.111 216.668 C 244.072 216.898,242.222 217.298,241.000 217.556 C 239.778 217.813,237.928 218.215,236.889 218.448 C 235.850 218.680,234.700 218.917,234.333 218.974 C 233.049 219.173,232.106 219.372,231.556 219.562 C 231.250 219.668,230.650 219.808,230.222 219.873 C 229.179 220.033,227.422 220.384,226.333 220.650 C 225.844 220.769,225.444 220.864,225.444 220.860 C 225.444 220.847,224.395 221.059,223.111 221.331 C 222.439 221.473,221.739 221.615,221.556 221.648 C 220.207 221.885,219.352 222.064,218.778 222.229 C 218.411 222.334,217.761 222.483,217.333 222.560 C 215.749 222.845,214.769 223.055,214.444 223.180 C 214.261 223.251,213.761 223.353,213.333 223.406 C 212.906 223.460,211.856 223.661,211.000 223.852 C 210.144 224.043,208.444 224.410,207.222 224.667 C 206.000 224.924,204.693 225.229,204.318 225.345 C 203.942 225.461,203.374 225.556,203.054 225.556 C 202.735 225.556,202.233 225.647,201.939 225.759 C 201.644 225.871,201.113 226.014,200.757 226.076 C 200.402 226.139,199.611 226.304,199.000 226.443 C 198.389 226.582,197.439 226.775,196.889 226.872 C 196.339 226.969,195.739 227.107,195.556 227.180 C 195.372 227.252,194.872 227.364,194.444 227.428 C 194.017 227.492,193.340 227.641,192.940 227.758 C 192.541 227.875,192.164 227.970,192.103 227.969 C 192.002 227.967,191.501 228.068,190.333 228.329 C 190.089 228.383,188.939 228.637,187.778 228.892 C 186.617 229.146,185.217 229.456,184.667 229.578 C 184.117 229.701,183.167 229.905,182.556 230.032 C 181.944 230.158,181.019 230.353,180.500 230.464 C 179.981 230.575,179.131 230.753,178.611 230.859 C 178.092 230.965,177.517 231.110,177.333 231.182 C 177.150 231.253,176.650 231.364,176.222 231.428 C 175.794 231.492,175.118 231.641,174.718 231.758 C 174.319 231.875,173.919 231.976,173.829 231.982 C 173.740 231.987,172.517 232.251,171.111 232.569 C 169.706 232.886,167.656 233.344,166.556 233.586 C 165.456 233.828,164.106 234.128,163.556 234.251 C 163.006 234.375,162.156 234.563,161.667 234.669 C 159.126 235.222,156.567 235.786,154.778 236.190 C 153.171 236.552,139.819 239.477,137.833 239.902 C 136.935 240.094,137.431 240.824,138.592 241.016 C 138.939 241.073,139.422 241.208,139.667 241.316 C 140.096 241.505,143.042 242.360,145.556 243.026 C 146.228 243.204,146.978 243.438,147.222 243.547 C 147.467 243.656,147.917 243.792,148.222 243.851 C 148.528 243.910,149.478 244.175,150.333 244.441 C 151.189 244.707,152.439 245.071,153.111 245.250 C 153.783 245.429,154.483 245.636,154.667 245.710 C 154.850 245.784,155.179 245.880,155.398 245.922 C 155.771 245.995,156.942 246.353,160.092 247.358 C 160.815 247.589,161.574 247.778,161.777 247.778 C 161.981 247.778,162.217 247.847,162.302 247.932 C 162.387 248.016,162.657 248.116,162.904 248.154 C 163.319 248.217,164.280 248.506,167.648 249.581 C 168.371 249.811,169.129 250.000,169.333 250.000 C 169.537 250.000,169.773 250.069,169.858 250.154 C 169.942 250.239,170.213 250.338,170.459 250.376 C 170.875 250.440,171.836 250.729,175.203 251.803 C 175.926 252.034,176.685 252.222,176.889 252.222 C 177.092 252.222,177.330 252.293,177.416 252.379 C 177.502 252.465,177.844 252.571,178.175 252.615 C 178.507 252.658,178.873 252.788,178.989 252.903 C 179.105 253.017,179.352 253.111,179.538 253.111 C 179.832 253.111,182.370 253.818,183.333 254.168 C 183.517 254.235,183.793 254.316,183.948 254.348 C 184.217 254.404,187.657 255.474,189.778 256.162 C 190.328 256.340,191.028 256.532,191.333 256.589 C 192.056 256.722,194.667 257.550,195.164 257.803 C 195.376 257.912,195.676 258.000,195.830 258.000 C 195.985 258.000,197.061 258.301,198.222 258.670 C 199.383 259.038,200.733 259.450,201.222 259.585 C 201.711 259.720,202.261 259.883,202.444 259.948 C 202.628 260.014,202.973 260.104,203.212 260.150 C 203.451 260.196,204.501 260.518,205.545 260.865 C 206.590 261.213,208.244 261.721,209.222 261.995 C 210.200 262.268,211.750 262.741,212.667 263.044 C 213.583 263.348,214.509 263.631,214.723 263.674 C 215.181 263.766,218.136 264.653,218.778 264.891 C 219.539 265.173,221.867 265.854,222.333 265.931 C 222.578 265.971,223.047 266.113,223.377 266.246 C 224.270 266.607,226.199 266.246,231.111 264.796 C 231.661 264.634,232.161 264.497,232.222 264.491 C 232.727 264.444,234.311 264.046,236.778 263.345 C 237.634 263.102,238.534 262.865,238.778 262.818 C 239.022 262.772,239.372 262.679,239.556 262.613 C 239.852 262.506,243.483 261.595,245.556 261.107 C 246.861 260.800,249.647 260.055,250.000 259.919 C 250.183 259.848,250.583 259.742,250.889 259.683 C 251.439 259.576,254.383 258.813,255.667 258.444 C 256.033 258.339,257.083 258.054,258.000 257.811 C 258.917 257.568,260.867 257.049,262.333 256.658 C 263.800 256.267,265.350 255.868,265.778 255.772 C 266.206 255.675,267.232 255.394,268.060 255.146 C 268.887 254.898,269.614 254.696,269.675 254.696 C 269.736 254.696,270.309 254.545,270.949 254.360 C 271.588 254.176,272.361 253.975,272.667 253.914 C 272.972 253.853,273.899 253.604,274.726 253.361 C 275.554 253.117,276.278 252.909,276.335 252.897 C 276.393 252.886,276.566 252.839,276.720 252.793 C 277.385 252.596,279.031 252.193,279.382 252.142 C 279.593 252.112,279.834 252.017,279.919 251.932 C 280.005 251.847,280.282 251.776,280.537 251.775 C 281.420 251.768,282.117 251.248,282.035 250.657 C 281.904 249.708,276.480 238.611,275.954 238.215 C 275.868 238.150,275.667 237.800,275.509 237.437 C 275.098 236.498,273.938 234.569,273.730 234.481 C 273.634 234.441,273.556 234.318,273.556 234.208 C 273.556 232.748,265.089 222.482,261.650 219.774 C 260.804 219.107,259.085 218.000,258.896 218.000 C 258.790 218.000,258.670 217.925,258.630 217.833 C 258.524 217.595,256.715 216.750,255.667 216.447 C 255.178 216.307,254.578 216.102,254.333 215.994 C 253.920 215.811,251.422 215.609,250.667 215.698 M340.186 256.833 C 340.005 257.047,339.542 257.727,339.157 258.344 C 338.446 259.481,336.570 261.465,335.556 262.153 C 335.250 262.360,334.950 262.597,334.889 262.678 C 334.767 262.841,331.209 265.313,330.056 266.036 C 329.658 266.285,329.341 266.653,329.350 266.855 C 329.375 267.431,330.007 270.934,330.418 272.778 C 331.027 275.513,331.604 278.192,331.780 279.111 C 331.886 279.661,332.081 280.561,332.213 281.111 C 332.345 281.661,332.515 282.489,332.590 282.950 C 332.665 283.411,332.813 283.842,332.919 283.907 C 333.025 283.973,333.111 284.238,333.111 284.497 C 333.111 284.756,333.211 285.276,333.333 285.651 C 333.455 286.026,333.811 287.183,334.124 288.222 C 334.850 290.633,336.166 293.275,336.918 293.835 C 337.657 294.384,338.826 294.194,339.099 293.479 C 339.199 293.216,339.593 292.357,339.974 291.572 C 340.355 290.786,340.667 290.010,340.667 289.846 C 340.667 289.683,340.755 289.376,340.863 289.164 C 341.470 287.969,341.536 286.400,341.458 275.111 C 341.414 268.694,341.329 263.094,341.269 262.667 C 341.209 262.239,341.137 260.853,341.109 259.588 C 341.038 256.415,340.896 255.991,340.186 256.833 M263.889 279.629 C 262.911 279.730,261.511 279.963,260.778 280.147 C 260.044 280.330,259.133 280.558,258.753 280.654 C 254.591 281.703,249.828 285.727,247.430 290.222 C 247.071 290.894,246.727 291.494,246.665 291.556 C 246.562 291.657,245.762 293.119,244.901 294.778 C 244.711 295.144,244.505 295.494,244.443 295.555 C 244.340 295.657,243.539 297.120,242.679 298.778 C 242.489 299.144,242.283 299.494,242.221 299.555 C 242.117 299.657,241.317 301.120,240.457 302.778 C 240.267 303.144,240.059 303.494,239.995 303.555 C 239.874 303.671,238.528 306.185,238.122 307.054 C 237.994 307.328,237.814 307.553,237.722 307.554 C 237.631 307.555,237.556 307.647,237.556 307.758 C 237.556 307.869,237.140 308.694,236.631 309.591 C 236.123 310.488,235.441 311.722,235.116 312.333 C 234.336 313.802,233.315 315.611,233.109 315.889 C 233.019 316.011,232.596 316.761,232.169 317.556 C 231.279 319.214,230.640 320.357,229.809 321.778 C 228.833 323.446,228.495 324.074,228.104 324.944 C 227.898 325.403,227.640 325.778,227.531 325.778 C 227.422 325.778,227.333 325.891,227.333 326.029 C 227.333 326.166,227.008 326.827,226.611 327.496 C 225.614 329.175,224.745 330.698,223.459 333.020 C 222.856 334.109,222.306 335.050,222.237 335.111 C 222.102 335.230,221.742 335.847,220.683 337.778 C 219.934 339.143,219.311 340.198,219.047 340.546 C 218.950 340.674,218.362 341.678,217.739 342.778 C 217.116 343.878,216.236 345.336,215.783 346.019 C 215.330 346.701,214.718 347.701,214.424 348.241 C 214.130 348.781,213.827 349.272,213.752 349.333 C 213.677 349.394,213.401 349.844,213.139 350.333 C 212.616 351.307,212.411 351.646,211.500 353.036 C 211.164 353.549,210.889 354.076,210.889 354.207 C 210.889 354.337,210.789 354.444,210.667 354.444 C 210.544 354.444,210.444 354.550,210.444 354.679 C 210.444 354.808,210.044 355.502,209.556 356.222 C 209.067 356.942,208.667 357.583,208.667 357.647 C 208.667 357.783,207.003 360.431,206.671 360.824 C 206.546 360.972,206.444 361.143,206.444 361.205 C 206.444 361.308,204.915 363.783,204.505 364.345 C 204.314 364.606,204.209 364.775,202.852 367.000 C 202.330 367.856,201.850 368.606,201.785 368.667 C 201.720 368.728,201.547 368.978,201.400 369.222 C 200.340 370.991,199.217 372.796,199.118 372.889 C 199.053 372.950,198.880 373.200,198.734 373.444 C 197.077 376.210,196.563 377.011,196.407 377.074 C 196.305 377.115,196.222 377.233,196.222 377.337 C 196.222 377.441,195.541 378.558,194.708 379.818 C 193.875 381.079,193.127 382.261,193.045 382.444 C 192.963 382.628,192.247 383.778,191.453 385.000 C 186.440 392.725,185.085 394.944,185.200 395.243 C 185.316 395.547,186.222 395.407,186.222 395.085 C 186.222 394.977,186.319 394.889,186.438 394.889 C 186.556 394.889,187.381 394.401,188.271 393.805 C 190.945 392.013,193.190 390.574,193.836 390.240 C 194.170 390.067,194.444 389.842,194.444 389.740 C 194.444 389.639,194.549 389.556,194.676 389.556 C 194.803 389.556,195.028 389.451,195.176 389.324 C 195.324 389.197,196.394 388.486,197.556 387.744 C 201.234 385.395,202.326 384.682,202.602 384.449 C 202.749 384.324,202.921 384.222,202.984 384.222 C 203.047 384.222,203.826 383.735,204.716 383.140 C 209.641 379.845,213.810 377.111,213.910 377.111 C 214.051 377.111,216.735 375.310,216.889 375.113 C 216.950 375.035,218.350 374.073,220.000 372.975 C 224.389 370.056,225.880 369.021,225.963 368.833 C 226.004 368.742,226.133 368.667,226.250 368.667 C 226.367 368.667,226.584 368.564,226.732 368.439 C 226.879 368.314,227.850 367.620,228.889 366.896 C 232.522 364.366,234.112 363.233,234.222 363.095 C 234.283 363.019,234.697 362.716,235.141 362.422 C 236.809 361.319,241.928 357.660,243.444 356.486 C 243.567 356.391,244.367 355.828,245.222 355.234 C 246.078 354.641,247.039 353.945,247.358 353.689 C 247.677 353.432,248.162 353.072,248.435 352.889 C 248.932 352.556,250.889 351.147,251.594 350.614 C 251.799 350.460,252.532 349.933,253.224 349.444 C 256.611 347.050,257.317 346.431,257.847 345.391 C 258.757 343.605,260.980 339.340,262.220 337.000 C 262.867 335.778,263.994 333.628,264.722 332.222 C 265.451 330.817,266.650 328.517,267.387 327.111 C 269.276 323.507,277.692 306.685,279.338 303.222 C 280.094 301.633,281.208 299.283,281.814 298.000 C 282.420 296.717,283.400 294.667,283.992 293.444 C 284.584 292.222,285.536 290.222,286.107 289.000 C 286.679 287.778,287.373 286.313,287.651 285.746 C 288.156 284.711,288.091 284.002,287.489 283.999 C 287.342 283.998,286.972 283.867,286.667 283.708 C 286.057 283.392,282.995 282.331,280.556 281.592 C 279.187 281.177,277.165 280.704,273.778 280.004 C 271.522 279.537,266.576 279.350,263.889 279.629 M322.122 292.944 C 321.919 293.600,321.452 296.037,321.132 298.111 C 321.019 298.844,320.707 300.694,320.439 302.222 C 319.854 305.560,319.598 307.258,319.432 308.889 C 319.364 309.561,319.259 310.258,319.198 310.437 C 319.138 310.616,319.037 311.466,318.974 312.326 C 318.911 313.186,318.818 314.015,318.769 314.170 C 318.719 314.325,318.615 315.225,318.537 316.170 C 318.460 317.115,318.319 318.539,318.225 319.333 C 317.858 322.439,318.210 332.274,318.699 332.576 C 318.804 332.640,318.890 332.912,318.892 333.180 C 318.898 333.947,319.953 336.508,320.421 336.889 C 320.575 337.014,322.000 339.319,322.000 339.443 C 322.000 339.487,322.516 340.355,323.146 341.373 C 325.688 345.473,326.982 348.076,327.545 350.222 C 327.690 350.772,327.893 351.522,327.997 351.889 C 328.101 352.256,328.298 353.306,328.434 354.222 C 328.570 355.139,328.733 356.214,328.795 356.611 C 329.021 358.047,329.578 357.271,330.431 354.333 C 331.713 349.916,332.482 347.165,332.575 346.667 C 332.632 346.361,332.768 345.861,332.877 345.556 C 333.046 345.081,333.232 344.402,333.454 343.444 C 333.483 343.322,333.677 342.622,333.886 341.889 C 334.095 341.156,334.299 339.965,334.340 339.243 C 334.381 338.521,334.481 337.671,334.563 337.354 C 334.705 336.804,334.980 335.233,335.228 333.556 C 335.292 333.128,335.436 332.428,335.549 332.000 C 335.781 331.123,335.968 329.560,336.133 327.111 C 336.195 326.194,336.293 325.244,336.350 325.000 C 336.618 323.865,336.717 318.724,336.475 318.574 C 336.336 318.488,336.222 318.249,336.221 318.042 C 336.220 317.727,335.365 315.294,334.683 313.667 C 334.580 313.422,334.217 312.522,333.876 311.667 C 332.354 307.848,330.085 303.700,326.914 298.939 C 326.204 297.873,325.045 296.100,324.339 295.000 C 322.853 292.686,322.348 292.217,322.122 292.944 M189.495 295.494 C 189.890 295.543,190.590 295.544,191.051 295.496 C 191.512 295.447,191.189 295.407,190.333 295.406 C 189.478 295.405,189.101 295.445,189.495 295.494 M304.275 302.093 C 301.976 304.213,297.669 308.555,296.111 310.323 C 295.256 311.294,294.402 312.247,294.214 312.441 C 294.027 312.635,293.577 313.190,293.214 313.675 C 292.852 314.159,292.431 314.688,292.278 314.849 C 292.125 315.011,292.000 315.212,292.000 315.296 C 292.000 315.380,291.768 315.699,291.485 316.004 C 290.104 317.493,285.111 325.930,285.111 326.774 C 285.111 326.908,284.298 328.787,283.982 329.386 C 283.870 329.598,283.778 329.953,283.778 330.175 C 283.778 330.396,283.658 330.698,283.511 330.844 C 283.364 330.991,283.307 331.111,283.384 331.111 C 283.462 331.111,283.423 331.436,283.300 331.833 C 282.621 334.012,282.379 336.259,282.397 340.222 C 282.418 345.075,282.678 357.013,282.794 358.444 C 282.917 359.971,282.920 390.040,282.797 390.619 C 282.738 390.898,282.623 392.698,282.542 394.619 C 282.462 396.540,282.357 398.311,282.309 398.556 C 282.262 398.800,282.168 400.050,282.099 401.333 C 282.031 402.617,281.932 403.882,281.878 404.144 C 281.824 404.407,281.726 405.407,281.660 406.366 C 281.593 407.326,281.497 408.312,281.445 408.557 C 281.394 408.802,281.290 409.952,281.215 411.112 C 281.139 412.273,281.037 413.349,280.989 413.503 C 280.940 413.658,280.840 414.558,280.767 415.503 C 280.694 416.449,280.589 417.361,280.534 417.532 C 280.479 417.702,280.380 418.552,280.313 419.420 C 280.247 420.289,280.148 421.300,280.093 421.667 C 280.038 422.033,279.940 422.983,279.876 423.778 C 279.813 424.572,279.710 425.522,279.648 425.889 C 279.303 427.935,279.277 430.000,279.596 430.000 C 279.929 430.000,280.177 429.510,283.299 422.667 C 284.275 420.528,285.618 417.628,286.284 416.222 C 287.647 413.344,288.083 412.385,289.110 410.000 C 289.504 409.083,290.126 407.683,290.490 406.889 C 290.855 406.094,291.313 405.044,291.507 404.556 C 291.701 404.067,292.041 403.339,292.263 402.938 C 292.485 402.537,292.667 402.115,292.667 402.000 C 292.667 401.885,292.927 401.213,293.246 400.507 C 294.248 398.287,294.392 397.945,295.335 395.556 C 295.842 394.272,296.348 392.997,296.461 392.722 C 297.019 391.364,297.315 390.600,297.990 388.778 C 298.261 388.044,298.563 387.244,298.660 387.000 C 299.160 385.737,304.487 371.143,305.351 368.667 C 305.738 367.556,306.022 366.836,306.248 366.392 C 306.356 366.180,306.444 365.853,306.444 365.667 C 306.444 365.480,306.533 365.154,306.641 364.941 C 306.956 364.321,307.261 363.516,307.586 362.444 C 308.092 360.775,307.980 326.889,307.453 322.222 C 307.405 321.794,307.307 320.044,307.235 318.333 C 307.163 316.622,307.060 314.722,307.005 314.111 C 306.950 313.500,306.856 311.900,306.797 310.556 C 306.737 309.211,306.630 307.261,306.558 306.222 C 306.486 305.183,306.389 303.683,306.343 302.889 C 306.297 302.094,306.251 301.336,306.241 301.204 C 306.200 300.675,305.438 301.020,304.275 302.093 M250.994 384.944 L 249.444 386.556 251.056 385.006 C 252.552 383.567,252.768 383.333,252.605 383.333 C 252.571 383.333,251.846 384.058,250.994 384.944 M268.505 394.000 C 268.505 394.550,268.548 394.775,268.601 394.500 C 268.654 394.225,268.654 393.775,268.601 393.500 C 268.548 393.225,268.505 393.450,268.505 394.000 M268.496 403.111 C 268.496 403.539,268.542 403.714,268.598 403.500 C 268.654 403.286,268.654 402.936,268.598 402.722 C 268.542 402.508,268.496 402.683,268.496 403.111 " stroke="none" fill="#fc7c34" fill-rule="evenodd"></path><path id="path1" d="M172.444 49.009 C 172.444 49.384,172.637 49.655,173.722 50.805 C 174.119 51.226,174.444 51.625,174.444 51.692 C 174.444 51.759,175.269 52.658,176.278 53.689 C 177.286 54.720,178.661 56.180,179.333 56.932 C 180.006 57.684,181.156 58.934,181.889 59.708 C 182.622 60.482,183.622 61.566,184.111 62.117 C 184.600 62.668,185.667 63.842,186.483 64.726 C 187.298 65.610,188.365 66.783,188.853 67.333 C 189.341 67.883,190.236 68.883,190.843 69.556 C 191.450 70.228,192.283 71.161,192.695 71.629 C 193.107 72.097,193.794 72.867,194.222 73.340 C 194.650 73.813,195.350 74.621,195.778 75.134 C 196.657 76.191,197.701 77.396,198.278 78.022 C 198.492 78.254,198.602 78.444,198.523 78.444 C 198.444 78.444,198.619 78.671,198.912 78.948 C 199.205 79.224,199.743 79.849,200.108 80.336 C 200.473 80.824,201.053 81.517,201.396 81.877 C 201.739 82.237,202.291 82.880,202.621 83.306 C 202.952 83.731,203.386 84.250,203.586 84.459 C 203.786 84.668,204.036 84.989,204.142 85.173 C 204.366 85.564,205.755 87.231,206.942 88.533 C 207.398 89.034,207.773 89.514,207.775 89.600 C 207.777 89.685,208.003 90.002,208.278 90.304 C 209.090 91.196,209.556 91.775,209.556 91.893 C 209.556 91.998,210.146 92.705,211.278 93.956 C 211.553 94.261,211.778 94.570,211.778 94.644 C 211.778 94.717,212.038 95.078,212.355 95.444 C 212.673 95.811,213.740 97.136,214.728 98.389 C 215.716 99.642,216.592 100.667,216.676 100.667 C 216.760 100.667,217.114 101.092,217.462 101.611 C 217.811 102.131,218.267 102.728,218.476 102.938 C 218.685 103.148,219.139 103.696,219.484 104.155 C 220.322 105.271,221.334 106.333,221.558 106.333 C 221.659 106.333,221.949 106.574,222.204 106.867 C 222.458 107.161,222.667 107.336,222.667 107.256 C 222.667 107.176,222.842 107.261,223.056 107.445 C 224.496 108.681,225.314 109.314,225.944 109.678 C 226.342 109.908,226.667 110.174,226.667 110.270 C 226.667 110.366,226.781 110.444,226.921 110.444 C 227.061 110.444,227.386 110.650,227.643 110.901 C 228.512 111.749,230.889 113.595,230.889 113.422 C 230.889 113.327,231.080 113.443,231.313 113.680 C 231.546 113.917,232.000 114.311,232.321 114.556 C 232.642 114.800,233.358 115.375,233.911 115.833 C 234.464 116.292,234.995 116.667,235.092 116.667 C 235.188 116.667,235.573 116.959,235.947 117.316 C 236.321 117.673,236.686 117.907,236.758 117.835 C 236.830 117.763,236.889 117.823,236.889 117.968 C 236.889 118.114,237.139 118.328,237.444 118.444 C 237.750 118.561,238.000 118.758,238.000 118.883 C 238.000 119.009,238.153 119.111,238.340 119.111 C 238.527 119.111,238.738 119.261,238.809 119.444 C 238.879 119.628,239.079 119.778,239.253 119.778 C 239.427 119.778,239.628 119.930,239.699 120.116 C 239.771 120.303,240.343 120.796,240.970 121.213 C 241.598 121.630,242.332 122.178,242.602 122.430 C 242.872 122.683,243.203 122.889,243.337 122.889 C 243.472 122.889,243.520 122.989,243.444 123.111 C 243.369 123.233,243.417 123.333,243.552 123.333 C 243.804 123.333,243.906 123.406,244.953 124.334 C 245.294 124.637,246.294 125.459,247.176 126.161 C 249.281 127.838,249.548 128.057,249.914 128.405 C 250.083 128.566,250.222 128.622,250.222 128.530 C 250.222 128.437,250.407 128.554,250.633 128.791 C 250.860 129.028,251.385 129.491,251.800 129.819 C 252.216 130.147,253.002 130.822,253.547 131.319 C 254.092 131.816,254.625 132.222,254.732 132.222 C 254.839 132.222,255.249 132.547,255.644 132.944 C 256.730 134.036,257.634 134.786,258.061 134.950 C 258.272 135.031,258.444 135.188,258.444 135.300 C 258.444 135.411,259.008 135.927,259.696 136.447 C 260.384 136.967,261.119 137.554,261.329 137.752 C 261.539 137.949,261.951 138.302,262.244 138.535 C 262.538 138.768,263.132 139.268,263.566 139.646 C 263.999 140.024,264.790 140.683,265.322 141.111 C 265.855 141.539,266.550 142.146,266.867 142.459 C 267.185 142.773,267.893 143.373,268.441 143.793 C 268.988 144.212,269.593 144.706,269.784 144.889 C 269.974 145.072,270.415 145.422,270.764 145.667 C 271.112 145.911,271.555 146.286,271.748 146.500 C 272.584 147.427,272.690 147.057,272.641 143.389 C 272.615 141.464,272.504 139.641,272.394 139.338 C 272.284 139.035,272.194 138.160,272.194 137.393 C 272.194 136.627,272.117 136.000,272.023 136.000 C 271.929 136.000,271.845 135.875,271.838 135.722 C 271.795 134.899,271.545 133.051,271.455 132.907 C 271.399 132.815,271.327 132.373,271.297 131.925 C 271.267 131.478,271.180 131.111,271.103 131.111 C 271.026 131.111,270.953 130.986,270.941 130.833 C 270.824 129.318,270.123 126.596,269.366 124.722 C 269.107 124.081,268.964 123.556,269.048 123.556 C 269.131 123.556,269.080 123.436,268.933 123.289 C 268.787 123.142,268.667 122.792,268.667 122.511 C 268.667 122.230,268.588 122.000,268.492 122.000 C 268.396 122.000,268.301 121.784,268.281 121.520 C 268.261 121.256,268.164 120.981,268.067 120.909 C 267.969 120.837,267.855 120.578,267.813 120.333 C 267.772 120.089,267.610 119.739,267.454 119.556 C 267.298 119.372,267.102 118.934,267.018 118.583 C 266.935 118.231,266.522 117.406,266.102 116.749 C 265.682 116.093,265.394 115.556,265.462 115.556 C 265.530 115.556,265.379 115.265,265.126 114.910 C 264.873 114.555,264.667 114.152,264.667 114.014 C 264.667 113.877,264.517 113.706,264.335 113.636 C 264.152 113.566,264.058 113.419,264.126 113.310 C 264.193 113.201,264.143 113.111,264.013 113.111 C 263.884 113.111,263.778 112.993,263.778 112.848 C 263.778 112.703,263.378 112.110,262.889 111.530 C 262.400 110.950,262.000 110.363,262.000 110.225 C 262.000 110.087,261.900 110.036,261.778 110.111 C 261.656 110.187,261.556 110.096,261.556 109.910 C 261.556 109.724,261.356 109.464,261.111 109.333 C 260.867 109.203,260.667 108.999,260.667 108.881 C 260.667 108.632,258.970 106.891,258.722 106.885 C 258.631 106.884,258.015 106.387,257.354 105.783 C 256.693 105.178,256.086 104.725,256.004 104.775 C 255.922 104.826,255.526 104.518,255.123 104.091 C 254.720 103.663,254.342 103.362,254.282 103.421 C 254.162 103.542,253.770 103.255,252.979 102.468 C 252.685 102.175,252.444 102.007,252.444 102.095 C 252.444 102.182,252.294 102.122,252.109 101.960 C 251.104 101.079,249.808 100.061,247.778 98.556 C 247.283 98.189,246.483 97.589,246.000 97.222 C 245.517 96.856,244.717 96.256,244.222 95.889 C 243.728 95.522,242.916 94.897,242.418 94.500 C 241.921 94.103,241.438 93.778,241.345 93.778 C 241.188 93.778,240.621 93.324,239.397 92.221 C 239.126 91.977,238.820 91.778,238.717 91.778 C 238.613 91.778,238.334 91.600,238.097 91.383 C 237.861 91.166,237.317 90.744,236.889 90.447 C 236.461 90.149,235.989 89.752,235.840 89.564 C 235.692 89.376,235.567 89.309,235.563 89.415 C 235.559 89.521,235.166 89.271,234.691 88.859 C 234.215 88.448,233.257 87.711,232.562 87.222 C 231.867 86.733,231.107 86.158,230.872 85.944 C 230.637 85.731,230.389 85.556,230.320 85.556 C 230.252 85.556,229.827 85.273,229.376 84.928 C 227.981 83.860,227.010 83.176,226.778 83.100 C 226.656 83.059,226.307 82.795,226.002 82.513 C 225.698 82.231,225.391 82.000,225.320 82.000 C 225.249 82.000,224.859 81.703,224.452 81.340 C 224.046 80.977,223.634 80.729,223.537 80.789 C 223.440 80.849,223.280 80.771,223.180 80.616 C 223.081 80.460,222.400 79.935,221.667 79.447 C 220.933 78.960,220.283 78.507,220.222 78.440 C 219.809 77.989,217.816 76.702,217.704 76.814 C 217.628 76.890,217.503 76.788,217.426 76.587 C 217.349 76.387,217.146 76.222,216.976 76.222 C 216.806 76.222,216.667 76.122,216.667 76.000 C 216.667 75.878,216.517 75.778,216.333 75.778 C 216.150 75.778,216.000 75.678,216.000 75.556 C 216.000 75.433,215.850 75.333,215.667 75.333 C 215.483 75.333,215.333 75.233,215.333 75.111 C 215.333 74.989,215.183 74.889,215.000 74.889 C 214.817 74.889,214.667 74.789,214.667 74.667 C 214.667 74.544,214.517 74.444,214.333 74.444 C 214.150 74.444,214.000 74.344,214.000 74.222 C 214.000 74.100,213.850 74.000,213.667 74.000 C 213.483 74.000,213.333 73.900,213.333 73.778 C 213.333 73.656,213.183 73.556,213.000 73.556 C 212.817 73.556,212.667 73.456,212.667 73.333 C 212.667 73.211,212.562 73.111,212.435 73.111 C 212.308 73.111,211.994 72.915,211.737 72.676 C 211.480 72.437,210.809 72.026,210.246 71.762 C 209.683 71.498,209.172 71.213,209.111 71.129 C 208.918 70.864,206.876 69.556,206.656 69.556 C 206.539 69.556,206.444 69.450,206.444 69.320 C 206.444 69.191,206.344 69.147,206.222 69.222 C 206.100 69.298,206.000 69.251,206.000 69.119 C 206.000 68.986,205.757 68.785,205.459 68.672 C 205.162 68.559,204.287 68.030,203.515 67.497 C 202.743 66.963,201.793 66.399,201.405 66.243 C 201.017 66.087,200.526 65.769,200.315 65.535 C 200.104 65.302,199.805 65.111,199.651 65.111 C 199.497 65.111,199.337 65.036,199.296 64.944 C 199.212 64.755,197.368 63.596,195.556 62.594 C 194.883 62.222,194.201 61.786,194.040 61.626 C 193.878 61.465,193.619 61.333,193.463 61.333 C 193.308 61.333,192.898 61.091,192.554 60.795 C 192.209 60.499,191.294 59.925,190.519 59.520 C 189.745 59.114,189.111 58.701,189.111 58.600 C 189.111 58.500,189.022 58.474,188.912 58.541 C 188.803 58.609,188.656 58.515,188.586 58.332 C 188.516 58.149,188.348 58.000,188.214 58.000 C 188.079 58.000,187.533 57.700,187.000 57.333 C 186.467 56.967,185.857 56.667,185.645 56.667 C 185.433 56.667,185.324 56.602,185.404 56.522 C 185.484 56.442,185.325 56.260,185.052 56.117 C 184.118 55.627,183.444 55.222,183.075 54.928 C 182.872 54.766,182.539 54.609,182.335 54.579 C 182.131 54.549,181.897 54.431,181.816 54.318 C 181.734 54.204,181.467 54.002,181.222 53.868 C 179.978 53.187,179.653 52.981,179.503 52.778 C 179.414 52.656,179.339 52.632,179.337 52.725 C 179.334 52.879,177.598 51.852,177.333 51.540 C 177.272 51.468,176.747 51.174,176.167 50.887 C 175.586 50.600,175.111 50.291,175.111 50.200 C 175.111 50.109,174.773 49.923,174.360 49.787 C 173.947 49.650,173.432 49.343,173.215 49.103 C 172.741 48.579,172.444 48.543,172.444 49.009 M181.111 160.028 C 180.806 160.150,180.156 160.255,179.667 160.261 C 179.178 160.267,178.613 160.359,178.411 160.465 C 178.209 160.572,177.581 160.707,177.015 160.765 C 176.449 160.823,175.900 160.924,175.795 160.989 C 175.690 161.054,175.218 161.147,174.746 161.196 C 174.275 161.245,173.591 161.363,173.226 161.458 C 172.861 161.552,172.361 161.647,172.115 161.668 C 171.868 161.689,171.317 161.773,170.889 161.853 C 170.461 161.934,169.861 162.043,169.556 162.097 C 169.250 162.150,168.525 162.287,167.944 162.402 C 167.364 162.516,166.889 162.569,166.889 162.519 C 166.889 162.469,166.705 162.527,166.480 162.648 C 166.255 162.768,165.630 162.888,165.091 162.914 C 164.552 162.940,164.011 163.034,163.889 163.123 C 163.672 163.280,162.531 163.470,160.389 163.705 C 159.808 163.769,159.333 163.886,159.333 163.966 C 159.333 164.046,158.815 164.142,158.182 164.180 C 157.549 164.218,156.849 164.347,156.627 164.466 C 156.405 164.585,155.823 164.722,155.334 164.770 C 154.845 164.819,154.252 164.920,154.016 164.995 C 153.780 165.070,153.255 165.169,152.849 165.215 C 152.443 165.262,151.639 165.394,151.063 165.509 C 150.486 165.624,149.963 165.667,149.901 165.605 C 149.839 165.543,149.657 165.601,149.497 165.734 C 149.336 165.868,148.778 166.002,148.255 166.033 C 147.732 166.063,147.255 166.169,147.195 166.267 C 147.134 166.364,146.591 166.444,145.987 166.444 C 145.383 166.444,144.889 166.528,144.889 166.630 C 144.889 166.731,144.764 166.822,144.611 166.831 C 144.021 166.865,142.509 167.087,141.500 167.288 C 140.919 167.404,140.444 167.449,140.444 167.389 C 140.444 167.328,140.313 167.388,140.152 167.522 C 139.991 167.655,139.516 167.780,139.096 167.799 C 138.677 167.817,138.024 167.923,137.647 168.033 C 137.269 168.143,136.590 168.247,136.138 168.264 C 135.685 168.281,135.263 168.379,135.200 168.481 C 135.137 168.583,134.697 168.667,134.224 168.667 C 133.750 168.667,133.103 168.765,132.786 168.886 C 132.469 169.006,131.887 169.127,131.494 169.153 C 131.100 169.179,130.724 169.278,130.658 169.371 C 130.592 169.465,130.092 169.591,129.547 169.652 C 129.002 169.712,128.006 169.868,127.333 169.999 C 126.661 170.129,125.636 170.296,125.056 170.369 C 124.475 170.441,124.000 170.568,124.000 170.650 C 124.000 170.778,123.079 170.915,122.000 170.946 C 121.817 170.952,121.612 171.038,121.546 171.139 C 121.480 171.239,120.980 171.366,120.435 171.420 C 119.890 171.474,119.444 171.534,119.444 171.554 C 119.444 171.613,118.595 171.764,117.944 171.820 C 117.608 171.849,117.333 171.931,117.333 172.004 C 117.333 172.076,116.908 172.159,116.389 172.188 C 115.869 172.217,115.144 172.330,114.778 172.440 C 114.411 172.550,113.511 172.754,112.778 172.894 C 112.044 173.033,111.044 173.240,110.556 173.354 C 110.067 173.468,109.467 173.594,109.222 173.635 C 108.978 173.675,108.528 173.771,108.222 173.848 C 107.917 173.925,107.367 174.036,107.000 174.096 C 106.633 174.156,105.958 174.298,105.500 174.412 C 105.042 174.526,104.667 174.577,104.667 174.524 C 104.667 174.472,104.474 174.532,104.239 174.658 C 104.004 174.784,103.429 174.936,102.961 174.996 C 101.535 175.180,99.919 175.506,99.333 175.728 C 99.028 175.845,98.553 175.904,98.278 175.860 C 98.003 175.816,97.778 175.880,97.778 176.001 C 97.778 176.123,97.390 176.222,96.916 176.222 C 96.442 176.222,95.717 176.360,95.305 176.528 C 94.893 176.697,94.331 176.797,94.056 176.752 C 93.781 176.707,93.556 176.748,93.556 176.845 C 93.556 176.941,93.210 177.044,92.788 177.072 C 92.366 177.100,91.641 177.256,91.177 177.419 C 90.713 177.581,90.158 177.687,89.944 177.654 C 89.731 177.622,89.556 177.665,89.556 177.750 C 89.556 177.836,89.281 177.927,88.944 177.953 C 88.608 177.980,88.083 178.061,87.778 178.134 C 87.472 178.208,86.772 178.349,86.222 178.449 C 85.672 178.548,84.847 178.727,84.389 178.847 C 83.931 178.966,83.556 179.005,83.556 178.932 C 83.556 178.859,83.436 178.920,83.289 179.067 C 83.142 179.213,82.705 179.333,82.317 179.333 C 81.929 179.333,81.224 179.469,80.750 179.635 C 80.276 179.800,79.714 179.909,79.500 179.877 C 79.286 179.844,79.111 179.889,79.111 179.976 C 79.111 180.064,78.695 180.160,78.187 180.190 C 77.679 180.220,77.085 180.339,76.868 180.456 C 76.651 180.572,76.179 180.667,75.820 180.667 C 75.460 180.667,74.828 180.804,74.416 180.973 C 74.004 181.141,73.442 181.242,73.167 181.196 C 72.892 181.151,72.667 181.192,72.667 181.287 C 72.667 181.383,72.342 181.484,71.944 181.513 C 71.547 181.541,70.879 181.676,70.459 181.813 C 70.040 181.950,69.440 182.093,69.126 182.131 C 68.812 182.169,68.181 182.295,67.722 182.410 C 67.264 182.525,66.889 182.560,66.889 182.488 C 66.889 182.415,66.769 182.476,66.622 182.622 C 66.476 182.769,66.038 182.889,65.650 182.889 C 65.262 182.889,64.557 183.024,64.083 183.190 C 63.610 183.356,63.047 183.465,62.833 183.432 C 62.619 183.399,62.444 183.443,62.444 183.528 C 62.444 183.613,62.169 183.705,61.833 183.731 C 61.497 183.758,60.972 183.839,60.667 183.912 C 60.361 183.985,59.836 184.096,59.500 184.159 C 58.452 184.354,58.775 185.304,59.833 185.137 C 59.925 185.123,60.000 185.211,60.000 185.333 C 60.000 185.456,60.257 185.556,60.570 185.556 C 60.884 185.556,61.323 185.653,61.545 185.772 C 61.768 185.892,62.262 186.013,62.642 186.042 C 63.022 186.071,63.333 186.162,63.333 186.245 C 63.333 186.328,63.658 186.447,64.056 186.511 C 64.453 186.574,65.178 186.738,65.667 186.875 C 66.156 187.012,66.706 187.163,66.889 187.211 C 67.072 187.259,67.822 187.465,68.556 187.669 C 69.289 187.874,70.139 188.072,70.444 188.109 C 70.750 188.147,71.025 188.201,71.056 188.228 C 71.086 188.255,71.186 188.292,71.278 188.309 C 71.369 188.326,71.576 188.424,71.737 188.526 C 71.898 188.628,72.086 188.655,72.155 188.586 C 72.224 188.517,72.486 188.570,72.737 188.704 C 72.989 188.839,73.550 188.996,73.986 189.053 C 74.421 189.110,74.905 189.261,75.061 189.388 C 75.217 189.515,75.404 189.559,75.478 189.485 C 75.552 189.411,75.899 189.500,76.250 189.681 C 76.602 189.863,76.889 189.966,76.889 189.910 C 76.889 189.854,77.214 189.910,77.611 190.034 C 78.008 190.158,78.623 190.301,78.976 190.351 C 79.330 190.402,79.755 190.556,79.921 190.693 C 80.087 190.831,80.222 190.888,80.222 190.821 C 80.222 190.753,80.547 190.799,80.944 190.923 C 81.342 191.047,81.950 191.189,82.295 191.239 C 82.641 191.288,83.041 191.402,83.184 191.491 C 83.327 191.581,83.594 191.676,83.778 191.702 C 83.961 191.728,84.461 191.849,84.889 191.971 C 87.023 192.578,88.379 192.933,88.806 192.996 C 89.066 193.034,89.466 193.158,89.695 193.270 C 89.924 193.382,90.261 193.461,90.444 193.446 C 90.628 193.430,90.903 193.511,91.056 193.625 C 91.208 193.739,91.333 193.758,91.333 193.667 C 91.333 193.576,91.465 193.610,91.626 193.744 C 91.787 193.877,92.237 194.011,92.626 194.041 C 93.015 194.070,93.333 194.173,93.333 194.269 C 93.333 194.366,93.617 194.444,93.963 194.444 C 94.309 194.444,94.663 194.515,94.749 194.601 C 94.835 194.687,95.169 194.793,95.491 194.836 C 95.813 194.879,96.268 195.017,96.502 195.142 C 96.736 195.267,96.982 195.315,97.048 195.248 C 97.115 195.181,97.365 195.231,97.604 195.359 C 97.843 195.487,98.305 195.638,98.631 195.695 C 99.256 195.804,100.438 196.150,101.288 196.473 C 101.569 196.579,102.038 196.667,102.331 196.667 C 102.623 196.667,102.911 196.745,102.970 196.840 C 103.029 196.936,103.403 197.039,103.802 197.069 C 104.200 197.100,104.639 197.218,104.778 197.333 C 104.916 197.448,105.348 197.567,105.737 197.596 C 106.126 197.626,106.444 197.737,106.444 197.844 C 106.444 197.950,106.569 197.992,106.722 197.938 C 106.875 197.883,107.274 197.977,107.609 198.146 C 107.944 198.315,108.244 198.436,108.275 198.414 C 108.359 198.357,110.301 198.762,110.556 198.889 C 110.617 198.919,110.758 198.957,110.870 198.972 C 110.982 198.987,111.149 199.075,111.241 199.167 C 111.332 199.258,111.685 199.333,112.024 199.333 C 112.363 199.333,112.695 199.422,112.762 199.530 C 112.871 199.707,113.282 199.819,114.821 200.093 C 115.089 200.141,115.425 200.253,115.569 200.342 C 115.713 200.430,116.168 200.590,116.582 200.696 C 116.995 200.802,117.708 200.992,118.167 201.118 C 118.625 201.244,119.250 201.397,119.556 201.458 C 119.861 201.519,120.261 201.631,120.444 201.706 C 120.628 201.782,120.978 201.883,121.222 201.929 C 121.466 201.976,122.366 202.223,123.222 202.478 C 124.078 202.734,124.878 202.966,125.000 202.993 C 125.122 203.021,125.372 203.099,125.556 203.167 C 125.913 203.299,128.037 203.872,128.222 203.887 C 128.283 203.892,128.433 203.956,128.556 204.030 C 128.678 204.103,129.328 204.297,130.000 204.461 C 130.672 204.624,131.272 204.771,131.333 204.787 C 131.394 204.803,131.594 204.881,131.778 204.961 C 131.961 205.041,132.311 205.142,132.556 205.186 C 132.800 205.230,133.150 205.330,133.333 205.408 C 133.517 205.487,133.867 205.587,134.111 205.631 C 134.356 205.675,134.706 205.775,134.889 205.853 C 135.072 205.931,135.422 206.031,135.667 206.075 C 135.911 206.119,136.261 206.219,136.444 206.297 C 136.628 206.375,136.978 206.475,137.222 206.520 C 137.467 206.564,137.817 206.664,138.000 206.742 C 138.183 206.820,138.556 206.916,138.828 206.955 C 139.099 206.994,139.391 207.095,139.476 207.179 C 139.560 207.264,139.893 207.333,140.215 207.333 C 140.537 207.333,140.895 207.427,141.011 207.542 C 141.127 207.657,141.493 207.786,141.825 207.830 C 142.156 207.873,142.498 207.980,142.584 208.066 C 142.670 208.152,143.004 208.222,143.326 208.222 C 143.648 208.222,144.006 208.316,144.122 208.431 C 144.238 208.545,144.605 208.675,144.936 208.719 C 145.268 208.762,145.609 208.868,145.695 208.955 C 145.781 209.041,146.115 209.111,146.437 209.111 C 146.759 209.111,147.117 209.205,147.233 209.320 C 147.349 209.434,147.716 209.564,148.047 209.608 C 148.379 209.651,148.720 209.757,148.806 209.843 C 148.893 209.930,149.240 210.000,149.579 210.000 C 149.919 210.000,150.258 210.100,150.333 210.222 C 150.409 210.344,150.759 210.444,151.111 210.444 C 151.463 210.444,151.814 210.545,151.890 210.668 C 151.966 210.792,152.297 210.837,152.625 210.770 C 152.954 210.703,153.572 210.594,154.000 210.528 C 154.428 210.462,155.031 210.313,155.340 210.197 C 155.650 210.081,156.250 209.946,156.674 209.898 C 157.098 209.849,157.744 209.722,158.111 209.615 C 158.478 209.508,158.928 209.433,159.111 209.446 C 159.294 209.460,159.548 209.396,159.675 209.303 C 159.802 209.210,160.327 209.110,160.842 209.079 C 161.357 209.049,161.778 208.963,161.778 208.889 C 161.778 208.814,162.203 208.730,162.722 208.701 C 163.242 208.672,163.967 208.560,164.333 208.452 C 165.052 208.241,166.844 207.849,167.835 207.685 C 168.172 207.630,168.672 207.512,168.946 207.424 C 169.220 207.335,169.644 207.245,169.889 207.222 C 170.133 207.199,170.632 207.098,170.996 206.998 C 171.361 206.897,171.861 206.796,172.107 206.774 C 172.354 206.752,172.706 206.675,172.889 206.604 C 173.072 206.532,173.672 206.419,174.222 206.352 C 174.772 206.285,175.597 206.139,176.056 206.028 C 176.514 205.916,176.889 205.876,176.889 205.940 C 176.889 206.003,177.021 205.945,177.183 205.810 C 177.344 205.676,177.869 205.528,178.349 205.481 C 178.829 205.435,179.372 205.331,179.556 205.252 C 179.739 205.173,180.239 205.073,180.667 205.030 C 181.094 204.987,181.607 204.881,181.807 204.796 C 182.006 204.710,182.556 204.612,183.029 204.578 C 183.502 204.544,184.067 204.438,184.285 204.342 C 184.504 204.247,185.004 204.155,185.397 204.137 C 185.790 204.120,186.225 204.033,186.365 203.943 C 186.504 203.854,187.004 203.729,187.476 203.664 C 190.340 203.274,190.803 203.193,191.036 203.048 C 191.177 202.960,191.707 202.871,192.212 202.851 C 192.717 202.831,193.182 202.732,193.245 202.630 C 193.308 202.528,193.697 202.444,194.110 202.444 C 194.522 202.444,195.114 202.348,195.425 202.229 C 195.736 202.111,196.368 201.994,196.829 201.969 C 197.290 201.945,197.777 201.841,197.911 201.740 C 198.046 201.639,198.446 201.543,198.800 201.527 C 199.155 201.512,199.753 201.409,200.131 201.300 C 200.508 201.190,201.188 201.086,201.640 201.069 C 202.093 201.052,202.515 200.955,202.578 200.853 C 202.641 200.750,203.137 200.667,203.680 200.667 C 204.223 200.667,204.667 200.588,204.667 200.492 C 204.667 200.396,204.842 200.305,205.056 200.291 C 205.793 200.240,207.002 200.048,207.663 199.876 C 208.027 199.781,208.527 199.686,208.774 199.664 C 209.021 199.642,209.472 199.563,209.778 199.487 C 210.521 199.303,211.878 199.091,213.167 198.956 C 213.747 198.896,214.222 198.777,214.222 198.693 C 214.222 198.609,214.397 198.528,214.611 198.514 C 215.484 198.457,216.916 198.232,217.090 198.124 C 217.192 198.061,217.742 197.961,218.312 197.902 C 218.881 197.844,219.435 197.741,219.542 197.675 C 219.650 197.608,220.139 197.538,220.629 197.519 C 222.019 197.465,222.223 196.126,220.995 195.107 C 220.815 194.957,220.667 194.647,220.667 194.417 C 220.667 194.188,220.589 194.000,220.495 194.000 C 220.401 194.000,220.127 193.625,219.886 193.167 C 219.645 192.708,219.364 192.272,219.261 192.197 C 219.158 192.123,219.071 191.973,219.069 191.864 C 219.063 191.594,218.119 189.986,216.842 188.073 C 216.257 187.196,215.778 186.365,215.778 186.226 C 215.778 186.087,215.678 186.036,215.556 186.111 C 215.433 186.187,215.333 186.105,215.333 185.929 C 215.333 185.754,215.184 185.486,215.002 185.335 C 214.820 185.184,214.726 184.972,214.793 184.864 C 214.860 184.755,214.809 184.667,214.680 184.667 C 214.550 184.667,214.444 184.567,214.444 184.444 C 214.444 184.322,214.269 184.029,214.056 183.794 C 213.362 183.029,213.111 182.689,213.110 182.509 C 213.109 182.413,212.759 181.953,212.332 181.488 C 211.905 181.022,211.556 180.553,211.556 180.444 C 211.556 180.334,211.331 179.999,211.056 179.698 C 210.781 179.397,210.406 178.927,210.222 178.655 C 210.039 178.382,209.689 177.934,209.444 177.658 C 209.200 177.383,208.650 176.728,208.222 176.202 C 206.868 174.538,206.177 173.787,203.457 171.027 C 201.998 169.546,200.723 168.358,200.624 168.389 C 200.525 168.419,200.444 168.294,200.444 168.111 C 200.444 167.928,200.319 167.777,200.167 167.776 C 200.014 167.775,199.521 167.425,199.070 166.998 C 198.620 166.571,198.150 166.222,198.026 166.222 C 197.902 166.222,197.720 166.093,197.622 165.936 C 197.524 165.778,196.944 165.328,196.333 164.935 C 195.722 164.542,194.980 164.046,194.685 163.833 C 194.389 163.619,194.064 163.469,193.962 163.500 C 193.861 163.531,193.778 163.467,193.778 163.359 C 193.778 163.251,193.603 163.103,193.389 163.029 C 193.175 162.955,192.668 162.692,192.263 162.444 C 191.858 162.196,191.308 161.952,191.041 161.902 C 190.774 161.852,190.506 161.792,190.444 161.768 C 190.383 161.744,190.258 161.737,190.167 161.751 C 190.075 161.766,190.000 161.678,190.000 161.556 C 190.000 161.433,189.907 161.333,189.792 161.333 C 189.678 161.333,189.353 161.245,189.070 161.138 C 188.787 161.030,188.482 160.924,188.393 160.901 C 188.304 160.879,187.904 160.761,187.504 160.640 C 186.331 160.285,185.948 160.220,184.833 160.192 C 184.253 160.176,183.778 160.077,183.778 159.971 C 183.778 159.709,181.802 159.752,181.111 160.028 M293.406 208.556 C 293.407 209.411,293.447 209.734,293.496 209.273 C 293.544 208.812,293.543 208.112,293.494 207.717 C 293.445 207.323,293.405 207.700,293.406 208.556 M326.967 209.111 C 326.967 210.150,327.005 210.575,327.052 210.056 C 327.098 209.536,327.098 208.686,327.052 208.167 C 327.005 207.647,326.967 208.072,326.967 209.111 M293.397 212.556 C 293.399 213.167,293.442 213.390,293.493 213.053 C 293.544 212.715,293.543 212.215,293.490 211.941 C 293.437 211.668,293.395 211.944,293.397 212.556 M264.556 222.444 C 265.281 223.178,265.925 223.778,265.986 223.778 C 266.047 223.778,265.503 223.178,264.778 222.444 C 264.052 221.711,263.408 221.111,263.347 221.111 C 263.286 221.111,263.830 221.711,264.556 222.444 M341.389 264.111 C 341.392 264.600,341.437 264.774,341.491 264.497 C 341.544 264.221,341.542 263.821,341.486 263.609 C 341.430 263.396,341.387 263.622,341.389 264.111 M186.770 295.568 C 186.723 295.644,186.155 295.735,185.509 295.769 C 184.029 295.848,183.000 295.941,183.000 295.995 C 183.000 296.018,182.725 296.078,182.389 296.129 C 182.053 296.180,181.503 296.264,181.167 296.315 C 180.831 296.366,180.556 296.424,180.556 296.443 C 180.556 296.488,179.801 296.661,179.220 296.749 C 178.975 296.786,178.563 296.929,178.305 297.067 C 178.047 297.205,177.783 297.264,177.718 297.199 C 177.652 297.134,177.414 297.185,177.188 297.312 C 176.557 297.669,175.050 298.277,174.565 298.371 C 174.326 298.418,174.076 298.533,174.010 298.628 C 173.943 298.723,173.339 299.080,172.667 299.422 C 170.198 300.679,165.291 305.161,165.300 306.152 C 165.301 306.252,165.157 306.414,164.980 306.514 C 164.802 306.613,164.715 306.788,164.786 306.903 C 164.857 307.017,164.809 307.111,164.680 307.111 C 164.550 307.111,164.444 307.212,164.444 307.336 C 164.444 307.459,164.094 308.059,163.665 308.669 C 163.236 309.279,162.955 309.778,163.040 309.778 C 163.125 309.778,162.984 309.974,162.726 310.215 C 162.468 310.455,162.186 310.880,162.099 311.159 C 162.011 311.438,161.879 311.717,161.803 311.778 C 161.509 312.017,160.667 313.328,160.667 313.547 C 160.667 313.674,160.573 313.778,160.459 313.778 C 160.345 313.778,160.190 313.975,160.113 314.216 C 160.036 314.458,159.630 315.155,159.209 315.767 C 158.789 316.378,158.444 316.981,158.444 317.106 C 158.444 317.231,158.363 317.333,158.263 317.333 C 158.163 317.333,157.846 317.758,157.557 318.278 C 157.269 318.797,156.779 319.622,156.469 320.111 C 156.158 320.600,155.926 321.075,155.952 321.167 C 155.979 321.258,155.895 321.333,155.767 321.333 C 155.639 321.333,155.355 321.733,155.136 322.221 C 154.918 322.710,154.673 323.043,154.592 322.962 C 154.511 322.881,154.444 322.952,154.444 323.120 C 154.444 323.288,154.044 323.995,153.556 324.692 C 153.067 325.389,152.667 326.069,152.667 326.202 C 152.667 326.335,152.589 326.444,152.493 326.444 C 152.398 326.444,152.194 326.719,152.040 327.056 C 151.516 328.201,151.228 328.667,151.045 328.667 C 150.945 328.667,150.924 328.767,151.000 328.889 C 151.076 329.011,151.029 329.111,150.897 329.111 C 150.764 329.111,150.562 329.357,150.448 329.658 C 150.218 330.262,149.162 331.941,148.716 332.411 C 148.560 332.576,148.281 333.072,148.096 333.514 C 147.912 333.956,147.688 334.371,147.599 334.437 C 147.353 334.619,145.778 336.982,145.778 337.170 C 145.778 337.261,145.324 337.985,144.769 338.779 C 144.214 339.573,143.818 340.222,143.889 340.222 C 143.960 340.222,143.912 340.347,143.784 340.500 C 143.285 341.093,141.556 343.823,141.556 344.017 C 141.556 344.130,141.450 344.222,141.320 344.222 C 141.191 344.222,141.147 344.322,141.222 344.444 C 141.298 344.567,141.251 344.667,141.119 344.667 C 140.986 344.667,140.785 344.911,140.671 345.210 C 140.558 345.509,140.109 346.259,139.675 346.877 C 139.241 347.495,138.950 348.000,139.029 348.000 C 139.107 348.000,138.919 348.253,138.610 348.561 C 138.302 348.870,137.926 349.420,137.775 349.783 C 137.625 350.147,137.414 350.444,137.306 350.444 C 137.199 350.444,137.111 350.579,137.111 350.744 C 137.111 350.909,136.810 351.459,136.443 351.967 C 136.076 352.474,135.839 352.889,135.918 352.889 C 135.996 352.889,135.806 353.144,135.494 353.455 C 135.182 353.767,134.707 354.492,134.438 355.067 C 134.169 355.641,133.881 356.161,133.798 356.222 C 133.618 356.354,131.778 359.120,131.778 359.257 C 131.778 359.309,131.593 359.551,131.366 359.793 C 131.140 360.036,130.673 360.792,130.329 361.472 C 129.985 362.152,129.570 362.760,129.407 362.823 C 129.244 362.885,129.111 363.117,129.111 363.339 C 129.111 363.560,129.036 363.774,128.944 363.815 C 128.639 363.950,126.026 367.952,126.157 368.083 C 126.228 368.154,126.122 368.275,125.921 368.352 C 125.720 368.429,125.556 368.631,125.556 368.802 C 125.556 368.972,125.456 369.111,125.333 369.111 C 125.211 369.111,125.111 369.253,125.111 369.426 C 125.111 369.599,125.028 369.774,124.927 369.815 C 124.752 369.885,122.889 372.602,122.889 372.787 C 122.889 372.835,122.502 373.453,122.029 374.160 C 121.556 374.866,120.742 376.119,120.220 376.944 C 119.698 377.769,119.179 378.444,119.067 378.444 C 118.955 378.444,118.917 378.532,118.983 378.639 C 119.049 378.746,118.865 379.089,118.575 379.403 C 118.284 379.716,118.089 380.014,118.140 380.066 C 118.191 380.117,118.081 380.285,117.894 380.440 C 117.708 380.595,117.556 380.876,117.556 381.064 C 117.556 381.253,117.489 381.341,117.409 381.261 C 117.267 381.119,117.003 381.488,116.400 382.667 C 116.244 382.972,116.007 383.322,115.874 383.444 C 115.474 383.810,114.000 386.166,114.000 386.440 C 114.000 386.579,113.900 386.631,113.778 386.556 C 113.656 386.480,113.556 386.555,113.556 386.723 C 113.556 386.890,113.375 387.221,113.154 387.458 C 112.933 387.695,112.744 387.973,112.733 388.075 C 112.721 388.178,112.510 388.494,112.263 388.779 C 112.016 389.063,111.857 389.338,111.909 389.391 C 111.962 389.443,111.756 389.754,111.452 390.082 C 111.149 390.409,110.888 390.750,110.873 390.839 C 110.844 391.007,107.551 396.029,107.342 396.222 C 106.836 396.691,103.379 401.972,103.499 402.092 C 103.571 402.163,103.526 402.222,103.400 402.222 C 103.274 402.222,102.905 402.622,102.582 403.111 C 102.258 403.600,102.040 404.000,102.097 404.000 C 102.154 404.000,101.959 404.261,101.664 404.579 C 101.369 404.898,101.148 405.225,101.175 405.306 C 101.201 405.387,100.997 405.695,100.722 405.991 C 100.447 406.286,100.222 406.659,100.222 406.820 C 100.222 406.980,100.122 407.111,100.000 407.111 C 99.878 407.111,99.778 407.261,99.778 407.444 C 99.778 407.628,99.678 407.778,99.556 407.778 C 99.433 407.778,99.333 407.928,99.333 408.111 C 99.333 408.294,99.233 408.444,99.111 408.444 C 98.989 408.444,98.889 408.594,98.889 408.778 C 98.889 408.961,98.789 409.111,98.667 409.111 C 98.544 409.111,98.444 409.261,98.444 409.444 C 98.444 409.628,98.344 409.778,98.222 409.778 C 98.100 409.778,98.000 409.928,98.000 410.111 C 98.000 410.294,97.894 410.444,97.765 410.444 C 97.635 410.444,97.591 410.544,97.667 410.667 C 97.742 410.789,97.707 410.889,97.588 410.889 C 97.353 410.889,95.947 413.034,95.863 413.522 C 95.808 413.837,97.320 413.690,97.555 413.357 C 97.616 413.270,98.017 413.022,98.444 412.806 C 100.247 411.896,101.499 411.191,102.172 410.707 C 102.566 410.424,102.889 410.246,102.889 410.312 C 102.889 410.378,103.364 410.140,103.944 409.784 C 104.525 409.428,105.450 408.906,106.000 408.624 C 106.550 408.342,107.033 408.036,107.074 407.944 C 107.115 407.853,107.283 407.778,107.447 407.778 C 107.612 407.778,107.903 407.621,108.095 407.429 C 108.287 407.237,108.444 407.136,108.444 407.204 C 108.444 407.273,108.931 407.030,109.525 406.665 C 110.119 406.299,110.710 406.000,110.839 406.000 C 110.968 406.000,111.107 405.925,111.148 405.833 C 111.189 405.742,111.797 405.371,112.500 405.009 C 113.203 404.647,113.778 404.272,113.778 404.175 C 113.778 404.079,113.853 404.016,113.944 404.036 C 114.245 404.101,115.234 403.609,115.536 403.245 C 115.699 403.049,116.020 402.889,116.249 402.889 C 116.479 402.889,116.667 402.789,116.667 402.667 C 116.667 402.544,116.867 402.444,117.111 402.444 C 117.356 402.444,117.556 402.356,117.556 402.248 C 117.556 402.140,117.731 401.989,117.944 401.911 C 118.158 401.834,118.933 401.424,119.667 401.001 C 120.400 400.578,121.250 400.106,121.556 399.954 C 121.861 399.801,122.161 399.616,122.222 399.542 C 122.283 399.469,122.658 399.267,123.056 399.095 C 123.453 398.922,123.778 398.705,123.778 398.612 C 123.778 398.520,123.967 398.444,124.198 398.444 C 124.430 398.444,124.679 398.288,124.752 398.097 C 124.826 397.906,124.986 397.812,125.110 397.888 C 125.233 397.964,125.333 397.939,125.333 397.832 C 125.333 397.726,125.683 397.501,126.111 397.333 C 126.539 397.165,126.889 396.947,126.889 396.847 C 126.889 396.748,127.089 396.667,127.333 396.667 C 127.578 396.667,127.779 396.592,127.780 396.500 C 127.782 396.408,128.182 396.142,128.669 395.909 C 129.157 395.675,129.556 395.400,129.556 395.298 C 129.556 395.195,129.631 395.129,129.722 395.150 C 129.999 395.214,131.111 394.610,131.111 394.396 C 131.111 394.286,131.204 394.254,131.318 394.324 C 131.432 394.394,131.589 394.349,131.667 394.222 C 131.744 394.096,132.126 393.844,132.515 393.662 C 132.904 393.479,133.622 393.088,134.111 392.791 C 134.600 392.495,135.300 392.097,135.667 391.906 C 136.033 391.715,136.733 391.303,137.222 390.992 C 137.711 390.680,138.286 390.368,138.500 390.298 C 138.714 390.228,138.889 390.082,138.889 389.974 C 138.889 389.866,138.964 389.789,139.056 389.802 C 139.391 389.850,140.222 389.498,140.222 389.307 C 140.222 389.199,140.326 389.111,140.454 389.111 C 140.581 389.111,140.806 389.008,140.954 388.881 C 141.391 388.508,143.815 387.111,144.027 387.111 C 144.134 387.111,144.222 386.994,144.222 386.852 C 144.222 386.709,144.286 386.656,144.364 386.734 C 144.442 386.812,144.782 386.679,145.120 386.438 C 145.459 386.197,145.802 386.000,145.883 386.000 C 145.964 386.000,146.499 385.676,147.071 385.281 C 147.643 384.885,148.186 384.585,148.278 384.614 C 148.369 384.643,148.444 384.589,148.444 384.495 C 148.444 384.401,148.819 384.127,149.278 383.886 C 149.736 383.645,150.185 383.348,150.274 383.224 C 150.364 383.101,150.439 383.082,150.441 383.182 C 150.443 383.282,150.720 383.182,151.057 382.960 C 152.042 382.309,152.501 382.034,153.444 381.528 C 153.933 381.266,154.383 380.978,154.444 380.889 C 154.506 380.800,154.999 380.501,155.542 380.226 C 156.084 379.951,156.659 379.595,156.819 379.435 C 156.979 379.275,157.511 378.967,158.000 378.751 C 158.489 378.535,158.889 378.292,158.889 378.210 C 158.889 378.128,159.389 377.824,160.000 377.534 C 160.611 377.244,161.111 376.946,161.111 376.872 C 161.111 376.798,161.510 376.547,161.997 376.314 C 162.485 376.080,162.885 375.808,162.886 375.709 C 162.888 375.610,162.989 375.591,163.111 375.667 C 163.233 375.742,163.333 375.713,163.333 375.602 C 163.333 375.492,163.733 375.220,164.222 375.000 C 164.711 374.780,165.111 374.508,165.111 374.398 C 165.111 374.287,165.211 374.258,165.333 374.333 C 165.456 374.409,165.556 374.380,165.556 374.269 C 165.556 374.158,165.956 373.887,166.444 373.667 C 166.933 373.446,167.333 373.164,167.333 373.040 C 167.333 372.916,167.397 372.878,167.474 372.956 C 167.552 373.033,167.865 372.900,168.171 372.659 C 168.477 372.419,168.820 372.222,168.934 372.222 C 169.049 372.222,169.578 371.922,170.111 371.556 C 170.644 371.189,171.144 370.889,171.222 370.889 C 171.300 370.889,171.800 370.589,172.333 370.222 C 172.866 369.856,173.366 369.556,173.444 369.556 C 173.523 369.556,174.005 369.277,174.516 368.938 C 175.026 368.598,175.739 368.173,176.099 367.993 C 176.880 367.604,178.667 365.920,178.667 365.573 C 178.667 365.439,179.017 364.831,179.444 364.222 C 179.872 363.614,180.222 363.015,180.222 362.891 C 180.222 362.768,180.328 362.667,180.458 362.667 C 180.587 362.667,180.631 362.567,180.556 362.444 C 180.480 362.322,180.517 362.222,180.639 362.222 C 180.760 362.222,180.929 361.997,181.015 361.722 C 181.101 361.447,181.235 361.172,181.313 361.111 C 181.538 360.935,182.321 359.685,182.328 359.492 C 182.331 359.396,182.444 359.246,182.580 359.159 C 182.716 359.071,183.005 358.650,183.222 358.222 C 183.440 357.794,183.854 357.162,184.142 356.816 C 184.431 356.471,184.667 356.046,184.667 355.872 C 184.667 355.698,184.748 355.556,184.848 355.556 C 184.948 355.556,185.265 355.131,185.552 354.611 C 186.045 353.721,188.015 350.595,188.387 350.111 C 188.482 349.989,188.682 349.639,188.833 349.333 C 189.233 348.524,189.635 347.912,189.889 347.726 C 190.037 347.617,190.037 347.559,189.889 347.552 C 189.767 347.547,189.842 347.440,190.056 347.316 C 190.269 347.191,190.444 346.944,190.444 346.767 C 190.444 346.589,190.544 346.444,190.667 346.444 C 190.789 346.444,190.889 346.308,190.889 346.141 C 190.889 345.974,191.096 345.574,191.349 345.252 C 191.603 344.930,191.753 344.667,191.683 344.667 C 191.613 344.667,191.756 344.467,192.000 344.222 C 192.244 343.978,192.444 343.671,192.444 343.541 C 192.444 343.410,192.706 342.960,193.026 342.541 C 193.346 342.121,193.521 341.775,193.415 341.771 C 193.309 341.767,193.378 341.642,193.568 341.493 C 193.758 341.344,194.253 340.622,194.668 339.889 C 195.083 339.156,195.553 338.423,195.711 338.262 C 195.870 338.100,196.000 337.860,196.000 337.727 C 196.000 337.595,196.249 337.160,196.553 336.761 C 196.858 336.362,197.424 335.453,197.812 334.740 C 198.200 334.027,198.626 333.371,198.759 333.281 C 198.891 333.191,198.924 333.116,198.830 333.115 C 198.640 333.111,199.758 331.315,200.109 331.059 C 200.232 330.969,200.261 330.894,200.173 330.892 C 200.024 330.889,200.817 329.564,201.339 328.944 C 201.468 328.792,201.522 328.667,201.460 328.667 C 201.348 328.667,202.231 327.247,202.664 326.732 C 202.787 326.584,202.889 326.303,202.889 326.107 C 202.889 325.912,202.978 325.806,203.086 325.873 C 203.268 325.986,203.634 325.214,203.580 324.833 C 203.566 324.742,203.656 324.667,203.778 324.667 C 203.900 324.667,204.000 324.551,204.000 324.410 C 204.000 324.269,204.250 323.825,204.556 323.425 C 204.861 323.024,205.111 322.630,205.111 322.549 C 205.111 322.468,205.318 322.112,205.571 321.757 C 205.823 321.402,205.948 321.110,205.848 321.108 C 205.748 321.106,205.768 321.031,205.891 320.941 C 206.014 320.851,206.312 320.403,206.553 319.944 C 206.793 319.486,207.049 319.111,207.120 319.111 C 207.192 319.111,207.388 318.761,207.556 318.333 C 207.723 317.906,207.924 317.556,208.000 317.556 C 208.148 317.556,208.965 315.951,208.893 315.803 C 208.870 315.755,208.935 315.655,209.039 315.580 C 209.142 315.506,209.423 315.069,209.664 314.611 C 209.904 314.153,210.178 313.778,210.273 313.778 C 210.367 313.778,210.444 313.572,210.444 313.320 C 210.444 313.069,210.544 312.924,210.667 313.000 C 210.789 313.076,210.889 313.036,210.889 312.912 C 210.889 312.788,211.186 312.182,211.550 311.565 C 211.913 310.949,212.138 310.443,212.050 310.441 C 211.961 310.439,211.990 310.364,212.113 310.274 C 212.237 310.185,212.534 309.736,212.775 309.278 C 213.015 308.819,213.289 308.444,213.384 308.444 C 213.478 308.444,213.556 308.228,213.556 307.963 C 213.556 307.698,213.620 307.546,213.698 307.624 C 213.776 307.702,214.037 307.394,214.278 306.939 C 215.656 304.332,216.304 303.214,216.475 303.148 C 216.580 303.107,216.667 302.866,216.667 302.611 C 216.667 302.356,216.735 302.217,216.819 302.301 C 216.903 302.385,217.160 302.042,217.390 301.540 C 217.804 300.637,217.456 299.760,216.836 300.144 C 216.743 300.201,216.667 300.132,216.667 299.989 C 216.667 299.847,216.529 299.783,216.361 299.848 C 216.193 299.912,215.781 299.823,215.447 299.649 C 215.112 299.475,214.620 299.333,214.352 299.333 C 214.085 299.333,213.770 299.237,213.652 299.119 C 213.534 299.000,213.114 298.879,212.719 298.849 C 212.323 298.819,212.000 298.727,212.000 298.644 C 212.000 298.561,211.675 298.443,211.278 298.381 C 210.265 298.224,209.281 298.010,208.889 297.860 C 208.706 297.790,208.234 297.699,207.842 297.657 C 207.449 297.615,206.940 297.480,206.711 297.357 C 206.481 297.234,205.828 297.104,205.258 297.067 C 204.689 297.030,204.222 296.931,204.222 296.847 C 204.222 296.763,203.832 296.700,203.354 296.707 C 202.877 296.713,202.372 296.648,202.233 296.562 C 202.095 296.477,201.410 296.363,200.713 296.310 C 200.015 296.257,199.194 296.122,198.889 296.011 C 198.583 295.899,198.035 295.831,197.670 295.860 C 197.305 295.888,196.455 295.826,195.781 295.722 C 194.324 295.496,186.893 295.370,186.770 295.568 M308.056 336.333 C 308.059 336.822,308.104 336.996,308.157 336.720 C 308.210 336.443,308.208 336.043,308.153 335.831 C 308.097 335.618,308.054 335.844,308.056 336.333 M308.082 339.556 C 308.082 340.839,308.119 341.364,308.164 340.722 C 308.209 340.081,308.209 339.031,308.164 338.389 C 308.119 337.747,308.082 338.272,308.082 339.556 M308.095 349.222 C 308.095 351.911,308.127 352.981,308.166 351.599 C 308.205 350.217,308.205 348.017,308.166 346.710 C 308.126 345.403,308.095 346.533,308.095 349.222 M282.496 355.333 C 282.496 355.761,282.542 355.936,282.598 355.722 C 282.654 355.508,282.654 355.158,282.598 354.944 C 282.542 354.731,282.496 354.906,282.496 355.333 M307.844 358.222 C 307.844 358.894,307.886 359.169,307.937 358.833 C 307.988 358.497,307.988 357.947,307.937 357.611 C 307.886 357.275,307.844 357.550,307.844 358.222 M282.723 360.333 C 282.725 360.822,282.771 360.996,282.824 360.720 C 282.877 360.443,282.875 360.043,282.819 359.831 C 282.764 359.618,282.720 359.844,282.723 360.333 M307.838 360.889 C 307.838 361.439,307.882 361.664,307.935 361.389 C 307.988 361.114,307.988 360.664,307.935 360.389 C 307.882 360.114,307.838 360.339,307.838 360.889 M319.145 362.722 C 319.004 362.862,318.889 363.141,318.889 363.341 C 318.889 363.540,318.820 363.772,318.737 363.856 C 318.543 364.049,318.008 365.576,318.003 365.947 C 318.002 366.101,317.805 366.651,317.567 367.169 C 317.329 367.687,316.916 368.811,316.648 369.667 C 316.381 370.522,316.062 371.350,315.938 371.505 C 315.815 371.661,315.776 371.850,315.851 371.925 C 315.927 372.001,315.843 372.323,315.666 372.642 C 315.309 373.284,313.310 379.185,313.211 379.889 C 313.176 380.133,313.128 380.383,313.103 380.444 C 313.079 380.506,313.070 380.631,313.085 380.722 C 313.099 380.814,313.011 380.889,312.889 380.889 C 312.767 380.889,312.667 381.090,312.667 381.336 C 312.667 381.582,312.576 381.957,312.466 382.170 C 312.356 382.382,312.144 383.006,311.995 383.556 C 311.847 384.106,311.672 384.706,311.607 384.889 C 311.445 385.345,311.335 385.815,311.283 386.278 C 311.259 386.492,311.171 386.667,311.089 386.667 C 311.007 386.667,310.887 386.942,310.824 387.278 C 310.719 387.837,310.485 388.896,310.346 389.444 C 310.315 389.567,310.232 389.817,310.163 390.000 C 310.093 390.183,309.972 390.633,309.893 391.000 C 309.018 395.085,308.948 397.697,309.684 398.782 C 309.980 399.218,310.222 399.620,310.222 399.675 C 310.222 400.141,311.066 401.556,311.345 401.556 C 311.671 401.556,312.443 400.310,312.582 399.560 C 312.615 399.378,312.748 399.195,312.877 399.152 C 313.006 399.109,313.111 398.882,313.111 398.648 C 313.111 398.414,313.211 398.222,313.333 398.222 C 313.456 398.222,313.556 398.022,313.556 397.778 C 313.556 397.533,313.656 397.333,313.778 397.333 C 313.900 397.333,314.000 397.133,314.000 396.889 C 314.000 396.644,314.100 396.444,314.222 396.444 C 314.344 396.444,314.444 396.244,314.444 396.000 C 314.444 395.756,314.544 395.556,314.667 395.556 C 314.789 395.556,314.889 395.468,314.889 395.361 C 314.889 395.254,315.260 394.379,315.714 393.417 C 316.168 392.454,316.529 391.542,316.517 391.389 C 316.504 391.236,316.585 391.111,316.697 391.111 C 316.809 391.111,316.997 390.861,317.117 390.556 C 317.236 390.250,317.449 389.725,317.590 389.389 C 317.731 389.053,317.875 388.630,317.911 388.448 C 317.947 388.267,318.081 388.084,318.210 388.041 C 318.339 387.998,318.444 387.856,318.444 387.725 C 318.444 387.594,318.687 386.974,318.984 386.348 C 319.280 385.721,319.591 384.936,319.674 384.604 C 319.758 384.272,319.915 384.000,320.024 384.000 C 320.133 384.000,320.222 383.758,320.222 383.463 C 320.222 383.168,320.297 382.893,320.389 382.852 C 320.481 382.811,320.788 382.178,321.071 381.444 C 321.354 380.711,321.679 379.937,321.793 379.725 C 321.907 379.513,322.000 379.188,322.000 379.003 C 322.000 378.818,322.080 378.667,322.178 378.667 C 322.386 378.667,322.889 377.359,322.889 376.818 C 322.889 376.612,322.978 376.444,323.086 376.444 C 323.195 376.444,323.346 376.119,323.421 375.722 C 323.496 375.325,323.701 374.725,323.877 374.389 C 324.052 374.053,324.112 373.778,324.010 373.778 C 323.908 373.778,323.828 373.553,323.832 373.278 C 323.854 371.859,323.687 370.222,323.521 370.222 C 323.418 370.222,323.333 369.976,323.333 369.675 C 323.333 369.129,321.696 365.709,321.167 365.151 C 321.015 364.990,320.829 364.615,320.754 364.318 C 320.679 364.021,320.529 363.778,320.420 363.778 C 320.311 363.778,320.222 363.581,320.222 363.341 C 320.222 362.780,319.501 362.366,319.145 362.722 M266.556 371.752 C 266.189 371.981,265.664 372.385,265.389 372.649 C 265.114 372.912,264.886 373.050,264.881 372.953 C 264.877 372.857,264.677 373.014,264.437 373.302 C 264.197 373.591,264.000 373.761,264.000 373.681 C 264.000 373.601,263.765 373.765,263.477 374.045 C 263.189 374.326,262.276 375.106,261.448 375.778 C 260.619 376.450,259.812 377.125,259.653 377.278 C 259.495 377.431,259.279 377.556,259.175 377.556 C 259.070 377.556,258.358 378.156,257.592 378.889 C 256.826 379.622,256.158 380.222,256.108 380.222 C 256.058 380.222,255.563 380.663,255.009 381.202 C 254.454 381.741,254.000 382.142,254.000 382.093 C 254.000 381.863,247.403 388.666,246.617 389.707 C 246.126 390.357,245.653 390.889,245.566 390.889 C 245.479 390.889,245.099 391.364,244.721 391.944 C 244.343 392.525,243.677 393.400,243.240 393.889 C 242.802 394.378,242.445 394.903,242.445 395.056 C 242.445 395.208,242.344 395.333,242.222 395.333 C 242.100 395.333,242.000 395.483,242.000 395.667 C 242.000 395.850,241.900 396.000,241.778 396.000 C 241.656 396.000,241.556 396.150,241.556 396.333 C 241.556 396.517,241.450 396.667,241.320 396.667 C 241.191 396.667,241.141 396.758,241.210 396.870 C 241.280 396.982,241.259 397.107,241.165 397.148 C 240.847 397.285,239.329 400.035,239.456 400.241 C 239.525 400.353,239.481 400.444,239.357 400.444 C 239.108 400.444,238.206 402.297,238.111 403.004 C 238.078 403.251,237.849 403.901,237.602 404.449 C 237.355 404.996,237.149 405.594,237.143 405.778 C 237.122 406.479,236.993 407.005,236.808 407.140 C 236.593 407.296,236.542 412.314,236.585 428.889 C 236.601 435.061,236.570 441.111,236.517 442.333 C 236.463 443.556,236.379 446.545,236.329 448.977 C 236.279 451.409,236.178 453.709,236.104 454.088 C 236.030 454.468,235.927 455.628,235.875 456.667 C 235.786 458.457,235.638 459.889,235.543 459.889 C 235.519 459.889,235.475 460.389,235.445 461.000 C 235.340 463.149,235.245 464.000,235.110 464.000 C 235.034 464.000,234.956 464.656,234.935 465.458 C 234.915 466.261,234.834 467.021,234.755 467.148 C 234.677 467.274,234.573 467.978,234.525 468.711 C 234.476 469.444,234.352 470.209,234.249 470.411 C 234.146 470.613,234.047 471.264,234.028 471.859 C 234.010 472.454,233.944 473.021,233.883 473.120 C 233.792 473.268,233.545 475.488,233.494 476.611 C 233.487 476.764,233.414 476.889,233.332 476.889 C 233.203 476.889,233.156 477.292,233.038 479.389 C 233.026 479.603,232.949 479.778,232.866 479.778 C 232.784 479.778,232.661 480.453,232.593 481.278 C 232.524 482.103,232.419 483.200,232.358 483.717 C 232.297 484.233,232.342 484.714,232.457 484.786 C 232.699 484.935,234.030 483.562,233.880 483.319 C 233.825 483.230,233.936 483.098,234.126 483.025 C 234.317 482.952,234.410 482.791,234.333 482.667 C 234.257 482.543,234.350 482.381,234.541 482.308 C 234.733 482.235,234.889 482.035,234.889 481.865 C 234.889 481.695,234.995 481.556,235.124 481.556 C 235.254 481.556,235.298 481.456,235.222 481.333 C 235.147 481.211,235.188 481.111,235.315 481.111 C 235.441 481.111,235.705 480.800,235.901 480.420 C 236.194 479.854,237.669 477.701,238.397 476.778 C 239.262 475.680,240.670 473.556,240.533 473.556 C 240.437 473.556,240.554 473.409,240.791 473.229 C 241.028 473.050,241.152 472.900,241.066 472.896 C 240.980 472.892,241.155 472.624,241.455 472.301 C 241.755 471.977,242.000 471.577,242.000 471.412 C 242.000 471.247,242.100 471.111,242.222 471.111 C 242.344 471.111,242.444 471.007,242.444 470.880 C 242.444 470.752,242.644 470.433,242.889 470.171 C 243.133 469.909,243.333 469.563,243.333 469.403 C 243.333 469.242,243.433 469.111,243.556 469.111 C 243.678 469.111,243.778 468.961,243.778 468.778 C 243.778 468.594,243.878 468.444,244.000 468.444 C 244.122 468.444,244.222 468.294,244.222 468.111 C 244.222 467.928,244.328 467.778,244.458 467.778 C 244.587 467.778,244.642 467.696,244.580 467.595 C 244.518 467.495,244.652 467.255,244.877 467.061 C 245.103 466.868,245.720 465.975,246.248 465.077 C 246.776 464.179,247.536 462.970,247.937 462.391 C 248.338 461.812,248.667 461.237,248.667 461.113 C 248.667 460.990,248.783 460.889,248.926 460.889 C 249.069 460.889,249.122 460.826,249.046 460.750 C 248.969 460.673,249.224 460.148,249.613 459.583 C 250.002 459.018,250.316 458.506,250.311 458.444 C 250.306 458.383,250.434 458.201,250.595 458.040 C 250.757 457.878,250.889 457.622,250.889 457.470 C 250.889 457.319,251.064 456.997,251.278 456.755 C 251.767 456.201,252.375 455.209,252.787 454.293 C 252.961 453.904,253.208 453.522,253.334 453.444 C 253.460 453.366,253.505 453.210,253.435 453.096 C 253.365 452.982,253.413 452.889,253.542 452.889 C 253.672 452.889,253.778 452.751,253.778 452.583 C 253.778 452.414,253.927 452.153,254.109 452.002 C 254.291 451.851,254.385 451.639,254.318 451.530 C 254.251 451.422,254.295 451.333,254.416 451.333 C 254.538 451.333,254.707 451.108,254.793 450.833 C 254.879 450.558,255.010 450.283,255.086 450.222 C 255.161 450.161,255.451 449.661,255.731 449.111 C 256.258 448.073,256.509 447.605,256.892 446.944 C 257.016 446.731,257.226 446.281,257.358 445.944 C 257.491 445.608,257.678 445.333,257.775 445.333 C 257.872 445.333,258.020 445.058,258.104 444.722 C 258.188 444.386,258.384 443.961,258.540 443.778 C 258.696 443.594,259.050 442.994,259.328 442.444 C 259.606 441.894,259.922 441.294,260.029 441.111 C 260.137 440.928,260.348 440.528,260.497 440.222 C 260.646 439.917,260.821 439.617,260.884 439.556 C 260.948 439.494,261.257 438.944,261.571 438.333 C 261.884 437.722,262.553 436.458,263.057 435.524 C 263.561 434.590,263.913 433.765,263.839 433.691 C 263.764 433.616,263.808 433.556,263.936 433.556 C 264.064 433.556,264.300 433.231,264.460 432.833 C 264.621 432.436,264.814 432.061,264.889 432.000 C 265.102 431.826,266.089 429.686,266.042 429.500 C 266.019 429.408,266.093 429.333,266.207 429.333 C 266.321 429.333,266.483 429.108,266.567 428.833 C 266.651 428.558,266.855 428.178,267.021 427.988 C 267.187 427.799,267.368 427.399,267.423 427.099 C 267.478 426.800,267.541 426.556,267.563 426.556 C 267.586 426.556,267.643 425.306,267.690 423.778 C 267.805 420.018,267.883 418.817,268.030 418.555 C 268.098 418.433,268.169 416.933,268.188 415.222 C 268.207 413.511,268.285 411.461,268.363 410.667 C 268.544 408.824,268.543 387.067,268.363 385.000 C 268.288 384.144,268.213 381.318,268.196 378.718 C 268.180 376.119,268.092 373.946,268.001 373.889 C 267.910 373.833,267.875 373.460,267.924 373.060 C 268.124 371.414,267.718 371.025,266.556 371.752 M282.960 377.556 C 282.960 378.350,283.000 378.675,283.050 378.278 C 283.099 377.881,283.099 377.231,283.050 376.833 C 283.000 376.436,282.960 376.761,282.960 377.556 M282.496 392.000 C 282.496 392.428,282.542 392.603,282.598 392.389 C 282.654 392.175,282.654 391.825,282.598 391.611 C 282.542 391.397,282.496 391.572,282.496 392.000 " stroke="none" fill="#f45c34" fill-rule="evenodd"></path><path id="path2" d="M227.315 129.859 C 227.611 130.223,228.444 130.774,228.444 130.605 C 228.444 130.563,228.119 130.290,227.722 129.999 C 227.275 129.672,227.120 129.618,227.315 129.859 M246.000 144.062 C 246.000 144.104,246.325 144.377,246.722 144.667 C 247.169 144.995,247.324 145.048,247.129 144.808 C 246.833 144.444,246.000 143.893,246.000 144.062 M252.777 149.521 C 253.019 149.807,253.418 150.144,253.664 150.270 C 254.136 150.512,254.067 150.437,253.002 149.552 C 252.360 149.019,252.352 149.018,252.777 149.521 M258.110 153.965 C 258.352 154.251,258.752 154.589,258.998 154.714 C 259.469 154.956,259.401 154.882,258.335 153.997 C 257.693 153.464,257.685 153.463,258.110 153.965 M251.333 188.288 C 251.333 188.345,251.804 188.776,252.379 189.247 C 252.953 189.718,253.352 189.988,253.264 189.846 C 253.078 189.544,251.333 188.136,251.333 188.288 M326.952 206.333 C 326.954 206.944,326.997 207.168,327.048 206.830 C 327.099 206.492,327.098 205.992,327.045 205.719 C 326.993 205.446,326.951 205.722,326.952 206.333 M293.389 210.778 C 293.392 211.267,293.437 211.441,293.491 211.164 C 293.544 210.888,293.542 210.488,293.486 210.275 C 293.430 210.063,293.387 210.289,293.389 210.778 M326.940 211.556 C 326.940 211.983,326.986 212.158,327.042 211.944 C 327.098 211.731,327.098 211.381,327.042 211.167 C 326.986 210.953,326.940 211.128,326.940 211.556 M338.126 259.500 C 337.646 260.114,337.607 260.217,337.980 259.891 C 338.425 259.502,339.013 258.667,338.841 258.667 C 338.806 258.667,338.484 259.042,338.126 259.500 M266.615 279.494 C 267.015 279.544,267.615 279.543,267.948 279.492 C 268.282 279.441,267.956 279.401,267.222 279.402 C 266.489 279.403,266.216 279.445,266.615 279.494 M234.778 312.667 C 234.588 313.033,234.483 313.333,234.544 313.333 C 234.605 313.333,234.810 313.033,235.000 312.667 C 235.190 312.300,235.295 312.000,235.234 312.000 C 235.173 312.000,234.967 312.300,234.778 312.667 M226.778 326.889 C 226.588 327.256,226.483 327.556,226.544 327.556 C 226.605 327.556,226.810 327.256,227.000 326.889 C 227.190 326.522,227.295 326.222,227.234 326.222 C 227.173 326.222,226.967 326.522,226.778 326.889 M308.071 343.111 C 308.071 343.906,308.111 344.231,308.161 343.833 C 308.210 343.436,308.210 342.786,308.161 342.389 C 308.111 341.992,308.071 342.317,308.071 343.111 M282.496 354.000 C 282.496 354.428,282.542 354.603,282.598 354.389 C 282.654 354.175,282.654 353.825,282.598 353.611 C 282.542 353.397,282.496 353.572,282.496 354.000 " stroke="none" fill="#f88034" fill-rule="evenodd"></path><path id="path3" d="M227.315 129.859 C 227.611 130.223,228.444 130.774,228.444 130.605 C 228.444 130.563,228.119 130.290,227.722 129.999 C 227.275 129.672,227.120 129.618,227.315 129.859 M246.000 144.062 C 246.000 144.104,246.325 144.377,246.722 144.667 C 247.169 144.995,247.324 145.048,247.129 144.808 C 246.833 144.444,246.000 143.893,246.000 144.062 M252.777 149.521 C 253.019 149.807,253.418 150.144,253.664 150.270 C 254.136 150.512,254.067 150.437,253.002 149.552 C 252.360 149.019,252.352 149.018,252.777 149.521 M258.110 153.965 C 258.352 154.251,258.752 154.589,258.998 154.714 C 259.469 154.956,259.401 154.882,258.335 153.997 C 257.693 153.464,257.685 153.463,258.110 153.965 M251.333 188.288 C 251.333 188.345,251.804 188.776,252.379 189.247 C 252.953 189.718,253.352 189.988,253.264 189.846 C 253.078 189.544,251.333 188.136,251.333 188.288 M326.952 206.333 C 326.954 206.944,326.997 207.168,327.048 206.830 C 327.099 206.492,327.098 205.992,327.045 205.719 C 326.993 205.446,326.951 205.722,326.952 206.333 M293.389 210.778 C 293.392 211.267,293.437 211.441,293.491 211.164 C 293.544 210.888,293.542 210.488,293.486 210.275 C 293.430 210.063,293.387 210.289,293.389 210.778 M326.940 211.556 C 326.940 211.983,326.986 212.158,327.042 211.944 C 327.098 211.731,327.098 211.381,327.042 211.167 C 326.986 210.953,326.940 211.128,326.940 211.556 M338.126 259.500 C 337.646 260.114,337.607 260.217,337.980 259.891 C 338.425 259.502,339.013 258.667,338.841 258.667 C 338.806 258.667,338.484 259.042,338.126 259.500 M266.615 279.494 C 267.015 279.544,267.615 279.543,267.948 279.492 C 268.282 279.441,267.956 279.401,267.222 279.402 C 266.489 279.403,266.216 279.445,266.615 279.494 M234.778 312.667 C 234.588 313.033,234.483 313.333,234.544 313.333 C 234.605 313.333,234.810 313.033,235.000 312.667 C 235.190 312.300,235.295 312.000,235.234 312.000 C 235.173 312.000,234.967 312.300,234.778 312.667 M226.778 326.889 C 226.588 327.256,226.483 327.556,226.544 327.556 C 226.605 327.556,226.810 327.256,227.000 326.889 C 227.190 326.522,227.295 326.222,227.234 326.222 C 227.173 326.222,226.967 326.522,226.778 326.889 M308.071 343.111 C 308.071 343.906,308.111 344.231,308.161 343.833 C 308.210 343.436,308.210 342.786,308.161 342.389 C 308.111 341.992,308.071 342.317,308.071 343.111 M282.496 354.000 C 282.496 354.428,282.542 354.603,282.598 354.389 C 282.654 354.175,282.654 353.825,282.598 353.611 C 282.542 353.397,282.496 353.572,282.496 354.000 " stroke="none" fill="#f88034" fill-rule="evenodd"></path><path id="path4" d="M227.315 129.859 C 227.611 130.223,228.444 130.774,228.444 130.605 C 228.444 130.563,228.119 130.290,227.722 129.999 C 227.275 129.672,227.120 129.618,227.315 129.859 M246.000 144.062 C 246.000 144.104,246.325 144.377,246.722 144.667 C 247.169 144.995,247.324 145.048,247.129 144.808 C 246.833 144.444,246.000 143.893,246.000 144.062 M252.777 149.521 C 253.019 149.807,253.418 150.144,253.664 150.270 C 254.136 150.512,254.067 150.437,253.002 149.552 C 252.360 149.019,252.352 149.018,252.777 149.521 M258.110 153.965 C 258.352 154.251,258.752 154.589,258.998 154.714 C 259.469 154.956,259.401 154.882,258.335 153.997 C 257.693 153.464,257.685 153.463,258.110 153.965 M251.333 188.288 C 251.333 188.345,251.804 188.776,252.379 189.247 C 252.953 189.718,253.352 189.988,253.264 189.846 C 253.078 189.544,251.333 188.136,251.333 188.288 M326.952 206.333 C 326.954 206.944,326.997 207.168,327.048 206.830 C 327.099 206.492,327.098 205.992,327.045 205.719 C 326.993 205.446,326.951 205.722,326.952 206.333 M293.389 210.778 C 293.392 211.267,293.437 211.441,293.491 211.164 C 293.544 210.888,293.542 210.488,293.486 210.275 C 293.430 210.063,293.387 210.289,293.389 210.778 M326.940 211.556 C 326.940 211.983,326.986 212.158,327.042 211.944 C 327.098 211.731,327.098 211.381,327.042 211.167 C 326.986 210.953,326.940 211.128,326.940 211.556 M338.126 259.500 C 337.646 260.114,337.607 260.217,337.980 259.891 C 338.425 259.502,339.013 258.667,338.841 258.667 C 338.806 258.667,338.484 259.042,338.126 259.500 M266.615 279.494 C 267.015 279.544,267.615 279.543,267.948 279.492 C 268.282 279.441,267.956 279.401,267.222 279.402 C 266.489 279.403,266.216 279.445,266.615 279.494 M234.778 312.667 C 234.588 313.033,234.483 313.333,234.544 313.333 C 234.605 313.333,234.810 313.033,235.000 312.667 C 235.190 312.300,235.295 312.000,235.234 312.000 C 235.173 312.000,234.967 312.300,234.778 312.667 M226.778 326.889 C 226.588 327.256,226.483 327.556,226.544 327.556 C 226.605 327.556,226.810 327.256,227.000 326.889 C 227.190 326.522,227.295 326.222,227.234 326.222 C 227.173 326.222,226.967 326.522,226.778 326.889 M308.071 343.111 C 308.071 343.906,308.111 344.231,308.161 343.833 C 308.210 343.436,308.210 342.786,308.161 342.389 C 308.111 341.992,308.071 342.317,308.071 343.111 M282.496 354.000 C 282.496 354.428,282.542 354.603,282.598 354.389 C 282.654 354.175,282.654 353.825,282.598 353.611 C 282.542 353.397,282.496 353.572,282.496 354.000 " stroke="none" fill="#f88034" fill-rule="evenodd"></path></g></svg>